<?xml version="1.0" encoding="UTF-8"?>
<svg id="bottle" data-name="Шар 1" xmlns="http://www.w3.org/2000/svg" viewBox="0 0 70 139">
  <defs>
    <style>
      .bottle-1, .bottle-2 {
        fill: none;
      }

      .bottle-1, .bottle-2, .bottle-3, .bottle-4 {
        stroke: #000;
        stroke-linecap: round;
        stroke-linejoin: round;
      }

      .bottle-2, .bottle-3, .bottle-4 {
        stroke-width: 3px;
      }

      .bottle-3 {
        fill: #e3e5a1;
      }

      .bottle-4 {
        fill: #097018;
        fill-rule: evenodd;
      }
    </style>
  </defs>
  <g>
    <path class="bottle-4" d="M52.16,39.5l-3.99-23.12c-.35-2.03,1.21-3.88,3.27-3.88h4.06c1.83,0,2-1,2-3V4.82c0-2.32-1.17-3.32-3-3.32H13.82c-.73,0-1.32,.59-1.32,1.32v6.68c0,1.66,1.34,3,3,3h3.06c2.06,0,3.62,1.85,3.27,3.88l-3.99,23.12c-.21,1.23-1.09,2.23-2.28,2.6l-3.77,1.18c-6.12,1.91-10.29,7.58-10.29,14v76.9c0,1.83,1.49,3.32,3.32,3.32h60.36c1.83,0,3.32-1.49,3.32-3.32V58.4c0-7.08-4.6-13.34-11.36-15.45l-2.7-.84c-1.19-.37-2.07-1.38-2.28-2.6Z"/>
    <rect class="bottle-3" x="1.5" y="75.5" width="49" height="31"/>
    <line class="bottle-2" x1="19.5" y1="12.5" x2="33.5" y2="12.5"/>
  </g>
  <path class="bottle-4" d="M59.55,113c.61,.69,.48,5.71,.28,9.5-.13,2.39-2.12,4.26-4.52,4.21l-10.81-.21"/>
  <path class="bottle-2" d="M8.5,57.5c0-4.42,3.58-8,8-8"/>
  <path class="bottle-1" d="M7.5,83.5c0-1,1-1,1-1l2,1,2.95-1,2.23,1,2.43-1,2.39,1,2.33-1,2.11,1,1.66-1,1.9,1,2-1,2,1,2.5-1,1.68,1,2.62-1,2.2,1"/>
  <path class="bottle-1" d="M7.5,90.5c0-1,1-1,1-1l2,1,2.95-1,2.23,1,2.43-1,2.39,1,2.33-1,2.11,1,1.66-1,1.9,1,2-1,2,1,2.5-1,1.68,1,2.62-1,2.2,1"/>
  <path class="bottle-1" d="M7.5,97.5c0-1,1-1,1-1l2,1,2.95-1,2.23,1,2.43-1,2.39,1,2.33-1,2.11,1,1.66-1,1.9,1,2-1,2,1,2.5-1,1.68,1,2.62-1,2.2,1"/>
</svg>