<?xml version="1.0" encoding="UTF-8"?>
<svg id="coffe" data-name="Шар 1" xmlns="http://www.w3.org/2000/svg" viewBox="0 0 233.77 261.5">
  <defs>
    <style>
      .coffe-1 {
        fill: none;
      }

      .coffe-1, .coffe-2, .coffe-3, .coffe-4 {
        stroke: #000;
        stroke-linecap: round;
        stroke-linejoin: round;
      }

      .coffe-2 {
        fill: #352405;
      }

      .coffe-3 {
        fill: #a09784;
      }

      .coffe-4 {
        fill: #cead72;
      }
    </style>
  </defs>
  <g>
    <path class="coffe-3" d="M193.29,148.05l6.27-33.71-33.06-.34H72.5l-33.06,.34,26.69,143.54,.37-.07v.19h105v-.37l1.37,.25,6.52-35.04c25.49,4.2,49.26-8.1,53.3-27.96,4.1-20.19-13.62-41.13-39.39-46.83Zm6.77,55.52l-20.17,16.54,13.1-70.45,12.98,24.5c5.54,10.45,3.24,21.92-5.9,29.41Z"/>
    <rect class="coffe-2" x="17.5" y="258" width="208" height="3"/>
    <polygon class="coffe-4" points="197.5 125 41.5 125 39.5 114 199.5 114 197.5 125"/>
    <path class="coffe-1" d="M84.5,21c-4.06,.28-20.8,14.19-18,22,.48,1.33,9.11,10.91,13.62,15.45,1.42,1.43,1.5,3.73,.28,5.34l-9.87,13.16c-1.79,2.38-1.75,5.67,.1,8.01l11.87,15.03"/>
    <path class="coffe-1" d="M125.5,.5c-4.06,.32-20.8,16.44-18,25.48,.48,1.54,9.11,12.64,13.62,17.9,1.42,1.66,1.5,4.32,.28,6.19l-9.87,15.24c-1.79,2.76-1.75,6.57,.1,9.28l11.87,17.41"/>
    <path class="coffe-1" d="M168.5,21c-4.06,.28-20.8,14.19-18,22,.48,1.33,9.11,10.91,13.62,15.45,1.42,1.43,1.5,3.73,.28,5.34l-9.87,13.16c-1.79,2.38-1.75,5.67,.1,8.01l11.87,15.03"/>
  </g>
  <path class="coffe-4" d="M114.32,166.18c-.54,15.99,13.24,21.45,17.45,33.94,4.22,12.53-8.88,23.4-21.16,26.23,2.16,.81,4.45,1.28,6.83,1.35,14.08,.42,25.91-13.11,26.42-30.22,.51-17.11-10.48-31.33-24.56-31.75-1.7-.05-3.36,.11-4.98,.44,0,0,0,0,0,0Z"/>
  <path class="coffe-4" d="M124.96,212.41c.06-16-13.87-21.04-18.46-33.41-4.6-12.4,8.17-23.66,20.37-26.85-2.19-.74-4.49-1.15-6.87-1.15-14.08,0-25.5,13.88-25.5,31s11.42,31,25.5,31c1.7,0,3.36-.21,4.96-.59,0,0,0,0,0,0Z"/>
</svg>