<?xml version="1.0" encoding="UTF-8"?>
<svg id="flowerpot" data-name="Шар 1" xmlns="http://www.w3.org/2000/svg" viewBox="0 0 261.47 392.66">
  <defs>
    <style>
      .flowerpot-1 {
        fill: #ebef56;
        stroke-miterlimit: 10;
      }

      .flowerpot-1, .flowerpot-2 {
        stroke-width: 4px;
      }

      .flowerpot-1, .flowerpot-2, .flowerpot-3 {
        stroke: #000;
      }

      .flowerpot-2, .flowerpot-3, .flowerpot-4 {
        fill: none;
        stroke-linecap: round;
        stroke-linejoin: round;
      }

      .flowerpot-5 {
        fill: #7f611d;
      }

      .flowerpot-6 {
        opacity: .5;
      }

      .flowerpot-7 {
        opacity: .2;
      }

      .flowerpot-8 {
        fill: #4e7529;
      }

      .flowerpot-3 {
        stroke-width: 7px;
      }

      .flowerpot-9 {
        fill: #693;
      }

      .flowerpot-10 {
        opacity: .3;
      }

      .flowerpot-4 {
        stroke: #fff;
        stroke-width: 3px;
      }
    </style>
  </defs>
  <line class="flowerpot-2" x1="204.91" y1="26.08" x2="154.82" y2="269.67"/>
  <ellipse class="flowerpot-1" cx="208.12" cy="8.67" rx="6.7" ry="5.03" transform="translate(166.85 212.84) rotate(-80.96)"/>
  <ellipse class="flowerpot-1" cx="182.05" cy="42.68" rx="5.74" ry="4.31" transform="translate(111.29 215.76) rotate(-80.96)"/>
  <ellipse class="flowerpot-1" cx="217.69" cy="51.31" rx="5.74" ry="4.31" transform="translate(132.8 258.23) rotate(-80.96)"/>
  <line class="flowerpot-2" x1="16.25" y1="92.65" x2="134.38" y2="311.48"/>
  <ellipse class="flowerpot-1" cx="7.52" cy="77.24" rx="5.03" ry="6.7" transform="translate(-38.64 14.85) rotate(-30.94)"/>
  <ellipse class="flowerpot-1" cx="9.4" cy="120.05" rx="4.31" ry="5.74" transform="translate(-60.38 21.91) rotate(-30.94)"/>
  <ellipse class="flowerpot-1" cx="56.28" cy="127.72" rx="4.31" ry="5.74" transform="translate(-57.65 47.1) rotate(-30.94)"/>
  <ellipse class="flowerpot-1" cx="21.26" cy="146.65" rx="4.31" ry="5.74" transform="translate(-72.37 31.79) rotate(-30.94)"/>
  <ellipse class="flowerpot-1" cx="42.25" cy="103.76" rx="4.31" ry="5.74" transform="translate(-47.33 36.48) rotate(-30.94)"/>
  <g>
    <path class="flowerpot-8" d="M133.74,268.95c-11.58-26.15-14.41-64.26-7.52-102.73,6.88-38.47,22.75-73.24,42.68-93.75,11.58,26.15,14.41,64.26,7.52,102.73-6.88,38.48-22.75,73.24-42.68,93.75Z"/>
    <path d="M168.25,76.07c10.43,25.67,12.77,62.03,6.2,98.78-6.57,36.75-21.38,70.03-40.07,90.5-10.43-25.67-12.77-62.03-6.2-98.78,6.57-36.75,21.38-70.03,40.07-90.5m1.26-7.04c-20.46,19.8-37.77,54.95-45.26,96.84-7.5,41.89-3.44,80.86,8.88,106.52,20.46-19.8,37.77-54.95,45.26-96.84,7.49-41.89,3.44-80.86-8.88-106.52h0Z"/>
  </g>
  <g>
    <path class="flowerpot-9" d="M118.54,265.65c-24.13-25.44-43.74-68.77-52.7-116.73-8.96-47.95-6.34-95.44,6.97-127.88,24.13,25.44,43.74,68.77,52.7,116.73,8.97,47.95,6.34,95.44-6.97,127.88Z"/>
    <path d="M73.5,24.73c22.89,25.44,41.42,67.24,50.05,113.4,8.63,46.16,6.46,91.83-5.7,123.82-22.89-25.44-41.42-67.24-50.05-113.4-8.63-46.16-6.46-91.83,5.7-123.82m-1.35-7.24c-13.99,31.74-17.97,79.95-8.27,131.8,9.69,51.85,30.82,95.37,55.33,119.91,13.99-31.74,17.97-79.95,8.27-131.8-9.69-51.85-30.82-95.37-55.33-119.91h0Z"/>
  </g>
  <g>
    <path class="flowerpot-9" d="M149.01,262.2c-1.39-35.1,10.45-83.25,32.04-129.87,21.59-46.62,50.65-86.79,78.31-108.44,1.39,35.09-10.45,83.25-32.03,129.87-21.59,46.62-50.65,86.79-78.32,108.44Z"/>
    <path d="M257.46,28c.37,34.4-11.31,80.34-31.95,124.93-20.65,44.59-48.13,83.21-74.6,105.18-.37-34.4,11.31-80.34,31.95-124.93,20.65-44.59,48.13-83.21,74.6-105.18m3.69-7.97c-27.84,20.51-58.45,60.79-81.92,111.47-23.47,50.68-34.39,100.08-32.01,134.58,27.84-20.51,58.45-60.79,81.92-111.47,23.47-50.68,34.39-100.08,32.01-134.58h0Z"/>
  </g>
  <g>
    <path class="flowerpot-8" d="M97.64,257.01c-18.65-3.32-38.61-15.97-53.81-34.23-15.21-18.25-24.05-40.17-23.95-59.11,18.65,3.32,38.61,15.97,53.81,34.23,15.21,18.25,24.05,40.17,23.95,59.11Z"/>
    <path d="M21.92,166.12c17.5,3.85,35.98,15.94,50.24,33.06,14.26,17.12,22.82,37.48,23.45,55.38-17.5-3.85-35.98-15.94-50.24-33.06-14.26-17.12-22.82-37.48-23.45-55.38m-3.98-4.78c-.84,19.26,7.54,42.53,24.36,62.72,16.82,20.19,38.2,32.63,57.29,35.28,.84-19.26-7.54-42.53-24.36-62.72-16.82-20.19-38.2-32.63-57.29-35.28h0Z"/>
  </g>
  <g>
    <path class="flowerpot-8" d="M157.53,266.26c4.28-18.38,17.3-40.32,35.35-59.38,18.05-19.06,39.25-33.24,57.38-38.51-4.28,18.38-17.3,40.32-35.35,59.38-18.05,19.06-39.25,33.24-57.38,38.51Z"/>
    <path d="M247.41,171.38c-4.94,17.3-17.26,37.37-33.96,55-16.7,17.63-36.07,31.02-53.08,36.89,4.94-17.3,17.26-37.37,33.96-55s36.07-31.02,53.08-36.89m5.46-5.76c-18.5,4.41-41.27,18.6-61.45,39.9s-33.11,44.81-36.52,63.51c18.5-4.41,41.27-18.6,61.45-39.9,20.18-21.3,33.11-44.81,36.52-63.51h0Z"/>
  </g>
  <g>
    <path class="flowerpot-5" d="M87.27,386c-4.18,0-7.71-3.13-8.2-7.28l-9-75.72h122.5l-8.67,73c-.68,5.7-5.51,10-11.25,10H87.27Z"/>
    <path d="M190.32,305l-8.41,70.77c-.56,4.69-4.54,8.23-9.27,8.23H87.27c-3.17,0-5.84-2.37-6.21-5.52l-8.73-73.48h117.99m4.5-4H67.82l9.26,77.95c.61,5.16,4.99,9.05,10.18,9.05h85.37c6.75,0,12.44-5.05,13.24-11.76l8.94-75.24h0Z"/>
  </g>
  <g>
    <path class="flowerpot-5" d="M68.61,253h126.43c6.51,0,11.79,5.28,11.79,11.79v22.43c0,6.51-5.28,11.79-11.79,11.79H68.61c-6.51,0-11.79-5.28-11.79-11.79v-22.43c0-6.51,5.28-11.79,11.79-11.79Z"/>
    <path d="M195.03,255c5.4,0,9.79,4.39,9.79,9.79v22.43c0,5.4-4.39,9.79-9.79,9.79H68.61c-5.4,0-9.79-4.39-9.79-9.79v-22.43c0-5.4,4.39-9.79,9.79-9.79h126.43m0-4H68.61c-7.61,0-13.79,6.17-13.79,13.79v22.43c0,7.61,6.17,13.79,13.79,13.79h126.43c7.61,0,13.79-6.17,13.79-13.79v-22.43c0-7.61-6.17-13.79-13.79-13.79h0Z"/>
  </g>
  <g>
    <path class="flowerpot-5" d="M87.27,386c-4.18,0-7.71-3.13-8.2-7.28l-9-75.72h122.5l-8.67,73c-.68,5.7-5.51,10-11.25,10H87.27Z"/>
    <path d="M190.32,305l-8.41,70.77c-.56,4.69-4.54,8.23-9.27,8.23H87.27c-3.17,0-5.84-2.37-6.21-5.52l-8.73-73.48h117.99m4.5-4H67.82l9.26,77.95c.61,5.16,4.99,9.05,10.18,9.05h85.37c6.75,0,12.44-5.05,13.24-11.76l8.94-75.24h0Z"/>
  </g>
  <g class="flowerpot-10">
    <path d="M182.63,300.66l-7.75,65.24c-.8,6.71-6.48,11.76-13.24,11.76H77.97l.11,.95c.61,5.16,4.99,9.05,10.18,9.05h85.37c6.75,0,12.44-5.05,13.24-11.76l8.94-75.24h-13.19Z"/>
  </g>
  <g class="flowerpot-10">
    <path d="M197.63,251.25c.24,1.03,.39,2.09,.39,3.19v22.43c0,7.61-6.17,13.79-13.79,13.79H57.8c-.89,0-1.76-.09-2.6-.25,1.44,6.07,6.89,10.59,13.4,10.59h126.43c7.61,0,13.79-6.17,13.79-13.79v-22.43c0-6.73-4.82-12.32-11.19-13.53Z"/>
  </g>
  <g class="flowerpot-7">
    <path class="flowerpot-5" d="M87.27,386c-4.18,0-7.71-3.13-8.2-7.28l-9-75.72h122.5l-8.67,73c-.68,5.7-5.51,10-11.25,10H87.27Z"/>
    <path d="M190.32,305l-8.41,70.77c-.56,4.69-4.54,8.23-9.27,8.23H87.27c-3.17,0-5.84-2.37-6.21-5.52l-8.73-73.48h117.99m4.5-4H67.82l9.26,77.95c.61,5.16,4.99,9.05,10.18,9.05h85.37c6.75,0,12.44-5.05,13.24-11.76l8.94-75.24h0Z"/>
  </g>
  <g class="flowerpot-6">
    <line class="flowerpot-4" x1="75.02" y1="261.66" x2="112.02" y2="261.66"/>
  </g>
  <line class="flowerpot-3" x1="14.52" y1="387.16" x2="246.52" y2="389.16"/>
</svg>