<?xml version="1.0" encoding="UTF-8"?>
<svg id="leaf" data-name="Шар 1" xmlns="http://www.w3.org/2000/svg" viewBox="0 0 347.43 463.06">
  <defs>
    <style>
      .leaf-1 {
        fill: none;
        stroke: #fff;
        stroke-linecap: round;
        stroke-linejoin: round;
        stroke-width: 5px;
      }

      .leaf-2 {
        fill: #e9b800;
      }
    </style>
  </defs>
  <g>
    <g>
      <path class="leaf-2" d="M188.31,153.57c-20.3-24.58-26.85-57.28-17.5-87.8,9.35-30.52,33.09-53.94,63.68-62.92,20.3,24.58,26.85,57.28,17.5,87.8-9.35,30.52-33.09,53.94-63.68,62.92Z"/>
      <path d="M233.61,5.73c18.94,23.78,24.93,55,15.99,84.18-8.94,29.18-31.4,51.69-60.41,60.78-18.94-23.78-24.93-55-15.99-84.18,8.94-29.18,31.4-51.69,60.41-60.78m1.76-5.73c-30.87,8.52-56.86,32.15-66.94,65.04-10.08,32.89-1.78,67.02,19.02,91.38,30.87-8.52,56.86-32.15,66.94-65.04,10.08-32.89,1.78-67.02-19.02-91.38h0Z"/>
    </g>
    <g>
      <line class="leaf-1" x1="207.44" y1="89.82" x2="94.66" y2="460.56"/>
      <line class="leaf-2" x1="207.44" y1="89.82" x2="94.66" y2="460.56"/>
    </g>
  </g>
  <g>
    <g>
      <path class="leaf-2" d="M87.99,338.51c-31.74-3.02-59.49-21.51-74.45-49.71-14.97-28.19-14.74-61.54,.53-89.52,31.74,3.02,59.49,21.51,74.45,49.71,14.97,28.19,14.74,61.54-.53,89.52Z"/>
      <path d="M15.48,201.94c30.21,3.42,56.52,21.26,70.83,48.22,14.31,26.96,14.35,58.75,.26,85.69-30.21-3.42-56.52-21.26-70.83-48.22s-14.35-58.75-.26-85.69m-2.81-5.29c-15.81,27.85-17.48,62.94-1.35,93.32,16.13,30.38,46.13,48.65,78.06,51.17,15.81-27.85,17.48-62.94,1.35-93.32-16.13-30.38-46.13-48.65-78.06-51.17h0Z"/>
    </g>
    <g>
      <line class="leaf-1" x1="52.65" y1="272.05" x2="115.37" y2="390.49"/>
      <line class="leaf-2" x1="52.65" y1="272.05" x2="115.37" y2="390.49"/>
    </g>
  </g>
  <g>
    <g>
      <path class="leaf-2" d="M212.55,374.35c-15.81,0-31.46-4-45.35-11.57,3.02-31.74,21.52-59.49,49.71-74.45,13.6-7.22,28.87-11.04,44.17-11.04s31.46,4,45.35,11.57c-3.03,31.74-21.52,59.49-49.71,74.45-13.6,7.22-28.87,11.04-44.16,11.04h0Z"/>
      <path d="M261.08,279.78c14.84,0,29.53,3.62,42.69,10.49-3.42,30.21-21.26,56.52-48.22,70.83-13.24,7.03-28.11,10.75-43,10.75s-29.53-3.62-42.69-10.49c3.42-30.21,21.26-56.52,48.22-70.83,13.24-7.03,28.11-10.75,43-10.75m0-5c-15.32,0-30.86,3.64-45.34,11.33-30.38,16.13-48.65,46.13-51.17,78.06,14.58,8.27,31.15,12.68,47.98,12.68,15.32,0,30.86-3.64,45.34-11.33,30.38-16.13,48.66-46.13,51.17-78.06-14.58-8.27-31.15-12.68-47.98-12.68h0Z"/>
    </g>
    <g>
      <line class="leaf-1" x1="237.1" y1="325.53" x2="115.4" y2="390.5"/>
      <line class="leaf-2" x1="237.1" y1="325.53" x2="115.4" y2="390.5"/>
    </g>
  </g>
  <g>
    <g>
      <path class="leaf-2" d="M250.93,249.12c-15.81,0-31.46-4-45.35-11.57,3.03-31.74,21.51-59.49,49.71-74.45,13.6-7.22,28.87-11.04,44.17-11.04s31.46,4,45.35,11.57c-3.02,31.74-21.51,59.49-49.71,74.45-13.6,7.22-28.87,11.04-44.17,11.04h0Z"/>
      <path d="M299.45,154.55c14.84,0,29.53,3.62,42.69,10.49-3.42,30.21-21.26,56.52-48.22,70.83-13.24,7.03-28.11,10.75-43,10.75s-29.53-3.62-42.69-10.49c3.42-30.21,21.26-56.52,48.22-70.83,13.24-7.03,28.11-10.75,43-10.75m0-5c-15.32,0-30.86,3.64-45.34,11.33-30.38,16.13-48.65,46.13-51.17,78.06,14.58,8.27,31.15,12.68,47.98,12.68,15.32,0,30.86-3.64,45.34-11.33,30.38-16.13,48.65-46.13,51.17-78.06-14.58-8.27-31.15-12.68-47.98-12.68h0Z"/>
    </g>
    <g>
      <line class="leaf-1" x1="282.83" y1="196.87" x2="153.77" y2="265.27"/>
      <line class="leaf-2" x1="282.83" y1="196.87" x2="153.77" y2="265.27"/>
    </g>
  </g>
  <g>
    <g>
      <path class="leaf-2" d="M126.36,213.27c-31.74-3.02-59.49-21.52-74.45-49.71-14.97-28.19-14.74-61.54,.53-89.52,31.74,3.02,59.49,21.51,74.45,49.71,14.97,28.19,14.74,61.54-.53,89.52Z"/>
      <path d="M53.86,76.71c30.21,3.42,56.52,21.26,70.83,48.22,14.31,26.96,14.35,58.75,.26,85.69-30.21-3.42-56.52-21.26-70.83-48.22-14.31-26.96-14.35-58.75-.26-85.69m-2.81-5.29c-15.81,27.85-17.48,62.94-1.35,93.32,16.13,30.38,46.13,48.65,78.06,51.17,15.81-27.85,17.48-62.94,1.35-93.32-16.13-30.38-46.13-48.65-78.06-51.17h0Z"/>
    </g>
    <g>
      <line class="leaf-1" x1="92.95" y1="149.6" x2="153.74" y2="265.25"/>
      <line class="leaf-2" x1="92.95" y1="149.6" x2="153.74" y2="265.25"/>
    </g>
  </g>
</svg>