<?xml version="1.0" encoding="UTF-8"?>
<svg id="_Шар_2" data-name="Шар 2" xmlns="http://www.w3.org/2000/svg" viewBox="0 0 275.43 373.43">
  <defs>
    <style>
      .cls-1 {
        fill: #fff;
      }

      .cls-1, .cls-2, .cls-3, .cls-4, .cls-5, .cls-6, .cls-7, .cls-8, .cls-9, .cls-10 {
        stroke-miterlimit: 10;
      }

      .cls-1, .cls-2, .cls-5, .cls-6, .cls-7, .cls-8, .cls-9 {
        stroke: #000;
      }

      .cls-1, .cls-2, .cls-6 {
        stroke-width: 1.5px;
      }

      .cls-2, .cls-4, .cls-5 {
        fill: none;
        stroke-linecap: round;
      }

      .cls-3 {
        fill: #7852a5;
        stroke: #640081;
      }

      .cls-4, .cls-5, .cls-8, .cls-9 {
        stroke-width: 2px;
      }

      .cls-4, .cls-10 {
        stroke: #e94a00;
      }

      .cls-7 {
        fill: #7f0b00;
      }

      .cls-11, .cls-9 {
        fill: #b3dd1b;
      }

      .cls-12 {
        fill: #ff8d9a;
      }

      .cls-8 {
        fill: #b2db1f;
      }

      .cls-13, .cls-10 {
        fill: #fc886f;
      }

      .cls-10 {
        stroke-width: 3px;
      }
    </style>
  </defs>
  <g>
    <g>
      <g>
        <path class="cls-10" d="M44.77,245.05c-2.44-4.92-7.13-14.36-4-23.5,1.21-3.53,3.46-7.53,8-14,3.61-5.15,6.65-10.68,10-16,4.89-7.76,3.95-6.53,17-28,7.39-12.15,8.22-13.42,10-17,3.82-7.68,5.13-12.19,8-20,6.48-17.62,8.13-17.26,20-46,5.39-13.05,4.71-12.3,7-17,6.88-14.12,14.35-23.63,21-32,6.43-8.1,10.95-12.4,20-21,6.17-5.87,10.57-9.53,16-9,.58,.06,5.99,.64,9,5,1.8,2.61,1.93,5.38,2,7,.16,3.53-.86,6.15-2,9-1.61,4.03-2.29,3.68-6,11-2.39,4.72-2.28,4.31-3,6-1.5,3.5-1.14,3.19-1.5,4.5-.49,1.82,0,0-1,5-.46,2.29,.5,5.17,.5,7.5v7c.28,8.11-.07,11.14,0,20,.05,5.61,.11,13.32,1,23,1.22,13.26,3.33,22.99,4,26,2.14,9.56,4.44,16.37,5,18,1.98,5.78,3.73,9.82,6,15,11.79,26.94,17.69,40.41,18,41,5.05,9.53,5.67,12.14,7,17,1.86,6.8,4.35,16.38,0,25.5-1.85,3.87-4.28,6.31-5,7-4.3,4.14-8.47,4.89-15,7-10.5,3.39-7.98,4.13-24,10-7.91,2.9-13.73,4.63-15,5-10.72,3.16-16.08,4.74-23,5-2.94,.11-2.81-.13-18-2-17.07-2.1-17.72-1.86-23-3-5.69-1.23-11.69-2.57-19-6-9.79-4.59-16.04-10.18-18-12-3.85-3.57-8.45-7.84-12-15Z"/>
        <path class="cls-10" d="M52.77,201.05c-2,3-6.95-5.24-15-19-7.21-12.33-6.12-9.35-14-23-5.81-10.05-9.36-16.79-12-22-1.26-2.49-4.77-9.49-8-19-1.18-3.47-2.94-9.11-2-16,.67-4.91,2.16-6.37,3-7,3.5-2.6,8.9-.44,10,0,2.39,.96,2.74,1.78,10,8,1.73,1.48,3.64,3.11,6,5,3.97,3.17,7.04,5.32,8,6,7.83,5.56,11.45,10.19,19,16,14.42,11.09,30,15,27,19,0,0-.7,1.63-2,4-2.13,3.9-4.03,6.6-5,8-.62,.9-2.75,4.27-7,11-3.27,5.17-3.57,5.83-8,13-8.65,14.02-9.22,14.83-10,16Z"/>
        <path class="cls-10" d="M171.77,165.05c4.63-4.03,5.26-4.63,8-7,4.27-3.69,7.43-6.27,12-10,4.03-3.29,8.85-7.22,15-12,2.51-1.95,11.05-8.55,23-17,.87-.61,8.49-5.97,19-12,4.36-2.5,9.46-5.26,16-5,2.12,.08,5.99,.29,8,3,1.09,1.47,1.39,3.35,1,7-.85,7.9-3.83,13.68-4,14-4.71,8.93-9.74,15.73-13,20-7.08,9.27-7.92,9.38-16,20-3.72,4.89-4.31,5.87-9,12-4.69,6.12-5.19,6.56-11,14-8.3,10.63-12.45,15.95-15,20-4.58,7.27-4.24,8.31-6,9-12.12,4.76-43.63-38.22-36-49,.35-.5,.42-.4,8-7Z"/>
        <rect class="cls-13" x="163.39" y="146.42" width="21.48" height="88" transform="translate(-71.88 112.58) rotate(-30)"/>
      </g>
      <g>
        <path class="cls-10" d="M140.77,337.05c-1.26,2.69,3.15,6.89,7.5,15.5,1.28,2.54,1.89,3.83,2.25,4.6,1.23,2.67,1.38,3.33,2.75,5.4,2.49,3.77,5.21,7.76,10,9,2.89,.75,5.31,.18,6,0,3.36-.88,5.33-3.09,7-5,2.44-2.78,3.49-5.34,5-9,.64-1.54,2.03-5.13,3-10,.39-1.97,.91-4.6,1.14-7.83,.32-4.48,.48-6.72-.64-7.67-1.74-1.46-4.76,.62-10,2-1.9,.5-3.03,.63-14,1-17.12,.57-19.26,.42-20,2Z"/>
        <path class="cls-10" d="M57.77,319.05c-4.24,2.76-.73,15.25,1,20,2.16,5.93,5.13,9.74,7,12,2.66,3.23,4.54,5.5,8,7,1.62,.7,5.26,2.28,9,1,2.34-.8,4.78-2.7,8-10,.67-1.53,9.4-21.32,4-25-2.44-1.66-5.15,1.75-13,1-1.07-.1-2.15-.27-8-2-13.15-3.88-14.45-5.01-16-4Z"/>
        <g>
          <g>
            <path class="cls-9" d="M51.27,292.55c-.83,.44,.44,2.73,0,7-.12,1.11-.41,3.95-2,7-1.3,2.5-2.57,3.4-3,6-.1,.6-.29,1.75,0,3,.59,2.56,2.81,4.07,6,6,6.53,3.94,11,6,11,6,4.81,2.21,7.21,3.32,10,4,3.76,.92,6.52,.95,11,1,8.54,.09,11.59-1.26,13-2,1.63-.86,3.6-1.93,4-4,.4-2.07-1.11-3.93-2-5-2.38-2.86-5.29-3.94-11-6-10.09-3.63-9.76-3.4-11-4-3.24-1.55-5.82-3.37-11-7-3.97-2.79-5.96-4.18-8-6-4.15-3.7-6.06-6.5-7-6Z"/>
            <path class="cls-8" d="M41.27,234.55c-1.79,.25-2.41,9.89-2.5,13.5-.02,.86-.05,1.57,0,3,.23,6.62,1,12,1,12,1.21,8.4,1.77,12.61,3,16,3.34,9.19,9.38,14.79,15,20,6.55,6.07,12.57,9.5,17,12,7.73,4.35,14.08,6.62,18,8,6.11,2.15,14.62,5.09,26,6,4.71,.38,7.96,.25,14,0,11.6-.49,23.38-.98,37-5,9.41-2.78,15.82-4.67,23-10,10.9-8.09,15.85-18.39,20-27,4.79-9.95,6.15-18.06,7-23,1.57-9.07,1.29-15.37,.5-15.5-.6-.1-1.14,3.39-4.5,6.5-.29,.27-.83,.73-1.92,1.65-1.35,1.13-2.73,2.22-4.08,3.35,0,0-3.23,2.72-8,6-5.21,3.59-9.56,5.43-18,9-5.5,2.33-9.82,4.15-16,6-6.04,1.8-10.45,2.81-16,4-8.09,1.73-12.62,2.68-19,3-3.72,.19-6.74,.1-10,0-3.45-.1-8.75-.21-14-1-7.34-1.1-12.45-2.94-21-6-5.08-1.82-10.31-3.71-17-7-1.48-.73-11.99-5.88-17-10-11.19-9.21-10.15-25.83-12.5-25.5Z"/>
            <path class="cls-9" d="M193.27,328.55v-19h-63v19c-.63,2.87,.65,5.34,1,6,3.72,6.97,15.09,7.06,31,7,15.55-.06,26.39-.24,30-7,.3-.55,1.64-3.07,1-6Z"/>
            <rect class="cls-11" x="120.27" y="302.55" width="72" height="16"/>
            <path class="cls-3" d="M50.77,261.05c-.58,.53-.72,2.36-1,6-.23,3.09-.34,4.66,0,6,.21,.81,.86,3.21,3,5,.87,.73,2.21,1.85,3.5,1.5,1.26-.35,1.12-1.74,3-3,.56-.37,1.62-.95,3-1,.48-.02,2.47-.08,3,1,.46,.93-.44,2.2-1,3-.6,.86-1.14,1.25-2,2-1.38,1.21-2.39,2.1-3,3-1.56,2.32-1.16,5.73,0,8,.79,1.56,1.86,2.37,4,4,3.27,2.49,6.25,3.7,7,4,3.41,1.34,6.01,1.6,10,2,7.76,.77,9.48-.56,10-1,1.37-1.18,1.92-2.77,2-3,.19-.57,.45-1.62,0-6-.29-2.78-.52-3.61,0-4,.68-.5,2.2,.05,3,1,.71,.84,.38,1.45,1,3,.44,1.1,.99,1.77,2,3,1.36,1.66,2.05,2.49,3,3,3.32,1.78,7.65-.78,8-1,.51-.31,.34-.27,4-4,2.77-2.82,3.53-3.53,4-5,.21-.66,.77-2.43,0-4-.82-1.67-2.74-2.26-6-3-5.37-1.22-7.61-1.32-11-2-3.32-.67-5.59-1.46-10-3-1.63-.57-5.02-1.79-10-4-6.95-3.08-10.31-5.11-19-9-6.13-2.75-9.08-3.81-10.5-2.5Z"/>
            <path class="cls-8" d="M41.27,234.55c-1.14,.28-1.39,3.28-1.5,4.5-.2,2.35,.4,4.17,1,6,.1,.29,.58,1.73,1.5,3.5,.29,.55,.8,1.52,1.5,2.5,1.3,1.81,2.69,2.87,3.5,3.5,3.9,3.04,3.27,3.22,7,6,1.92,1.43,5.48,3.92,10.5,6.5,1.42,.73,2.81,1.39,12,5,8.16,3.21,12.32,4.84,16,6,2.48,.78,6.09,1.92,11,3,1,.22,5.63,1.23,12,2,3.55,.43,8.92,1.06,16,1,6.31-.05,11.07-.63,14-1,7.42-.93,13.16-2.28,16-3,8.09-2.05,13.95-4.38,18-6,3.86-1.55,9.85-3.96,17-8,2.83-1.6,6.65-3.75,11-7,1.94-1.45,2.26-1.82,4-3,3.11-2.1,4.84-2.74,7-5,1.59-1.66,1.89-2.6,2-3,.65-2.42-.68-4.53-1-5-.41-.61-.62-.92-1-1-1.16-.25-2.33,1.87-4,4-.46,.58-1.97,2.06-5,5-1.34,1.31-4.81,4.45-13,9-7,3.89-12.56,6.09-20,9-9.48,3.71-14.23,5.57-21,7-5.86,1.24-10.22,1.57-16,2-7.91,.59-14.92,1.12-24,0-6.65-.82-11.4-2.15-18-4-9.15-2.56-16.05-5.32-20-7-5.87-2.5-9.42-4.01-14-7-3.32-2.17-7.76-5.06-12-10-6.88-8.01-8.58-15.98-10.5-15.5Z"/>
          </g>
          <path class="cls-3" d="M205.77,292.05c-.34-1.75-2.02-2.77-2.74-3.21-3.18-1.93-6.89-.71-7.99-.4-2.31,.67-3.8,1.83-6.19,3.7-1.87,1.46-1.52,1.51-4.19,3.8-3.32,2.84-4.15,3.01-5.24,4.75-.59,.94-1.86,2.96-1.25,4.94,.29,.93,1.14,1.67,2.85,3.15,1.91,1.65,2.53,1.78,3.85,3.19,1.21,1.29,1.89,2.04,1.85,3.1-.06,1.56-1.67,2.59-2.15,2.9-.38,.24-1.53,.96-3.05,.85-1.79-.13-3.03-1.34-3.9-2.2-1.27-1.24-1.1-1.74-1.9-2.1-1.98-.88-4.76,1.46-5.09,1.75-1.9,1.64-2.57,3.61-3.29,5.84-.63,1.94-.55,2.67-.64,12.98-.02,2.46-.04,4.25,1.08,4.95,.71,.45,1.37,.13,4,0,2.31-.12,2.1,.11,4,0,1.75-.1,3.17-.4,6-1,1.91-.4,2.89-.61,4-1,2.48-.86,3.69-1.76,4-2,.62-.47,1.39-1.06,2-2,1.02-1.57,1.03-3.22,1-5-.08-4.41-.33-5.11-.36-7.69-.07-4.62,.68-4.53,.36-8.31-.17-2.01-.45-2.76,0-4,.65-1.8,2-2.3,4-4,.93-.78,2.28-2.52,5-6,3.89-4.98,4.2-5.98,4-7Z"/>
        </g>
      </g>
    </g>
    <g>
      <path d="M80.36,250.58c.5,4.42,3.52,8.9,7.76,10.34,4.44,1.37,8.96-1.36,13.08-3.44,0,0,.14,.15,.14,.15-5.81,5.78-14.63,8.72-19.61,.3-1.25-2.21-2.13-4.85-1.55-7.4,0,0,.19,.05,.19,.05h0Z"/>
      <path d="M88.34,247.61c-.24,2.03-.6,3.65-.57,5.48,0,.47,.08,.89,.18,.99,.12,.41,.96,.38,1.56,.44,1.13,.03,2.44-.1,3.91-.03l.09,.18c-2.62,1.41-8.13,3.21-7.61-1.74,.24-1.98,1.1-3.85,2.29-5.43,0,0,.16,.12,.16,.12h0Z"/>
    </g>
    <g>
      <ellipse class="cls-1" cx="109.54" cy="108.09" rx="24" ry="17.18" transform="translate(-13.53 200.48) rotate(-81.52)"/>
      <ellipse class="cls-1" cx="136.54" cy="109.09" rx="24" ry="17.18" transform="translate(8.5 228.04) rotate(-81.52)"/>
      <ellipse class="cls-6" cx="111.73" cy="106.58" rx="5.99" ry="3.51" transform="translate(-5.08 207.57) rotate(-84.49)"/>
      <ellipse class="cls-6" cx="134.73" cy="108.58" rx="5.99" ry="3.51" transform="translate(13.72 232.27) rotate(-84.49)"/>
    </g>
    <g>
      <line class="cls-5" x1="144.27" y1="64.55" x2="155.27" y2="73.55"/>
      <line class="cls-5" x1="140.27" y1="68.55" x2="153.27" y2="77.55"/>
      <line class="cls-5" x1="144.27" y1="64.55" x2="153.27" y2="77.55"/>
    </g>
    <g>
      <line class="cls-5" x1="127.92" y1="62.97" x2="113.97" y2="65.72"/>
      <line class="cls-5" x1="129.56" y1="68.38" x2="113.85" y2="70.19"/>
      <line class="cls-5" x1="127.92" y1="62.97" x2="113.85" y2="70.19"/>
    </g>
    <g>
      <g>
        <line class="cls-2" x1="83.77" y1="172.05" x2="88.27" y2="177.55"/>
        <line class="cls-2" x1="95.77" y1="143.05" x2="102.77" y2="147.05"/>
        <path class="cls-7" d="M101.27,146.55c-.96,.64-.1,2.77,0,6,.1,3.11-.57,5.46-1,7-1.03,3.67-2.72,6.14-4,8-2.76,4.03-4.14,6.04-6.5,7.5-.83,.51-1.95,1.08-2,2-.05,1.06,1.38,1.99,3,3,2.13,1.33,3.92,1.97,4,2,4.82,1.69,7.23,2.53,10,3,6.9,1.17,12.4,.29,14,0,7.13-1.28,12.03-4.19,15-6,1.22-.74,5.44-3.38,10-8,2.61-2.65,7.36-8,11-16,2.35-5.17,3.02-8.79,4-14,.49-2.61,.91-5.61,0-6-.59-.25-1.37,.77-3,2-1.48,1.11-2.53,1.54-6,3-10.74,4.52-10.28,4.47-12,5-3.66,1.13-6.46,1.59-9,2-7.89,1.28-13.96,1.1-16,1-5-.23-7.5-.35-9-1-.89-.38-1.86-.93-2.5-.5Z"/>
        <line class="cls-2" x1="153.77" y1="131.05" x2="164.77" y2="138.05"/>
      </g>
      <path class="cls-12" d="M98.27,182.55c-.92-2.08,2.34-5.34,3.5-6.5,.51-.51,2.54-2.5,6-4,1.74-.75,4.49-1.17,10-2,2.35-.35,3.77-.52,4,0,.42,.94-3.38,3.4-3,4,.12,.19,1,0,1,0,4.71-3.17,7-4,7-4,.17-.06,.35-.12,.35-.12,.56-.19,1.37-.39,3.65-.88,2.95-.63,4.42-.94,5-1,0,0,.03,0,.06,0,2.38-.24,7.94-.2,8.44,1.51,.23,.76-.63,1.62-2,3-1.3,1.3-2.36,1.89-4,3-2.3,1.56-2.25,1.79-4,3-4.31,2.97-8.58,4.28-11,5-.37,.11-1.91,.57-4,1-2.24,.47-4.73,.98-8,1-3.34,.02-5.72-.5-8-1-3.04-.66-4.56-1.01-5-2Z"/>
    </g>
  </g>
  <line class="cls-4" x1="163.27" y1="32.55" x2="161.27" y2="36.55"/>
  <line class="cls-4" x1="224.85" y1="163.97" x2="221.69" y2="167.13"/>
  <line class="cls-4" x1="121.73" y1="236.36" x2="120.8" y2="240.74"/>
  <line class="cls-4" x1="90.04" y1="194.19" x2="86.49" y2="196.91"/>
  <line class="cls-4" x1="46.36" y1="136.35" x2="42.18" y2="134.75"/>
  <line class="cls-4" x1="58.27" y1="220.55" x2="56.49" y2="222.91"/>
</svg>