<?xml version="1.0" encoding="UTF-8"?>
<svg id="penis" data-name="penis" xmlns="http://www.w3.org/2000/svg" viewBox="0 0 293.95 197.81">
  <defs>
    <style>
      .penis-1 {
        stroke: #020200;
      }

      .penis-1, .penis-2 {
        fill: none;
        stroke-miterlimit: 10;
      }

      .penis-3 {
        fill: #f1b9ba;
      }

      .penis-4 {
        fill: #ffcccb;
      }

      .penis-2 {
        opacity: .7;
        stroke: #efabb1;
      }
    </style>
  </defs>
  <path class="penis-1" d="M14.18,75.65s0,.02-.02,.03"/>
  <path class="penis-1" d="M202.55,40.67c-.14-.02-.29-.05-.43-.07"/>
  <line class="penis-1" x1="99.76" y1="73.91" x2="99.76" y2="73.9"/>
  <path class="penis-1" d="M202.35,41.14c-.08-.18-.16-.36-.23-.54"/>
  <g>
    <circle class="penis-3" cx="113.79" cy="121.43" r="57.87"/>
    <path class="penis-4" d="M115.75,139.94c0,31.96-25.91,57.87-57.87,57.87S0,171.9,0,139.94c0-14.58,5.39-27.91,14.29-38.08,10.61-12.14,26.21-19.8,43.59-19.8s31.45,6.93,41.99,18.05c9.84,10.37,15.88,24.4,15.88,39.83Z"/>
    <path class="penis-4" d="M202.23,66.81c-44.18-7.05-91.9,11.53-102.36,33.3-10.54-11.12-25.46-18.05-41.99-18.05-17.38,0-32.98,7.66-43.59,19.8C49.74,36.26,149.46-26.01,244.8,11.14c-26.87,5.06-52.21,33.3-42.57,55.67Z"/>
    <path class="penis-3" d="M243.86,10.81c4.46-.78,10.43-1.74,17.62,.38,7.63,2.26,12.39,6.74,15.06,9.32,5.08,4.9,7.54,9.71,10.47,15.45,2.8,5.48,5.02,9.83,6.13,16.21,.71,4.11,1.99,12.11-1.66,20.94-2.82,6.81-7.18,10.75-8.17,11.62-3.91,3.42-7.74,4.96-9.19,5.49-1.77,.65-8.2,2.79-15.96,1.15-9.52-2.02-9.65-7.33-20.17-10.21-5.65-1.55-6.82-.35-13.4-1.53-7.97-1.43-14.64-2.88-19.91-8.3-3.86-3.96-5.19-8.27-5.49-9.32-1.78-6.17-.22-11.4,.77-14.68,1.67-5.57,4.32-9.21,6.77-12.51,1.65-2.22,6.52-8.46,15.06-14.3,4.64-3.17,11.72-7.9,22.09-9.7Z"/>
    <path class="penis-2" d="M100.06,99.74c-14.65-11.22-11.8-9.07-27.74-15.86"/>
  </g>
</svg>