<?xml version="1.0" encoding="UTF-8"?>
<svg id="ship" data-name="Шар 1" xmlns="http://www.w3.org/2000/svg" viewBox="0 0 394 448">
  <defs>
    <style>
      .ship-1 {
        fill: #683e07;
      }

      .ship-1, .ship-2, .ship-3, .ship-4, .ship-5, .ship-6, .ship-7 {
        stroke-linecap: round;
        stroke-linejoin: round;
      }

      .ship-1, .ship-3, .ship-4, .ship-5, .ship-6, .ship-7 {
        stroke: #fff;
      }

      .ship-1, .ship-4, .ship-5, .ship-6 {
        fill-rule: evenodd;
      }

      .ship-1, .ship-5, .ship-6 {
        stroke-width: 3px;
      }

      .ship-2 {
        stroke: #eae4e4;
      }

      .ship-2, .ship-3 {
        fill: none;
      }

      .ship-3, .ship-7 {
        stroke-width: 5px;
      }

      .ship-4 {
        fill: #fff;
      }

      .ship-5 {
        fill: #f40b00;
      }

      .ship-6 {
        fill: #e80000;
      }

      .ship-7 {
        fill: #110d01;
      }
    </style>
  </defs>
  <polygon class="ship-6" points="185.5 276.5 184.48 78.52 76.46 276.5 185.5 276.5"/>
  <polygon class="ship-5" points="218.5 273.5 217.5 130.5 301.5 272.5 218.5 273.5"/>
  <line class="ship-3" x1="199.5" y1="2.5" x2="199.5" y2="337.5"/>
  <polygon class="ship-7" points="273.5 21.5 199.5 2.5 199.5 40.5 273.5 21.5"/>
  <polygon class="ship-1" points="349.5 446.5 40.5 446 1.5 337.5 392.5 337.5 349.5 446.5"/>
  <g>
    <path class="ship-4" d="M221.45,27.06c.37,0,.59-.64,.7-1.04,.44-1.69,1.86-3.24,1.86-5.48,0-3.92-3.72-12.53-9.75-12.53s-9.58,5.76-9.75,12.53c-.05,2.11,1.88,3.87,2.79,5.74,.15,.31,.38,.78,.7,.78h13.47Zm-2.9-10.71c.96,0,1.74,.88,1.74,1.96s-.78,1.96-1.74,1.96-1.74-.88-1.74-1.96,.78-1.96,1.74-1.96Zm-3.36,5.96h0c.27,.63,.15,2.14-.47,2.14h-.46c-.62,0-.85-1.51-.58-2.14h0c.31-.72,1.21-.72,1.52,0Zm-5-5.96c.96,0,1.74,.88,1.74,1.96s-.78,1.96-1.74,1.96-1.74-.88-1.74-1.96,.78-1.96,1.74-1.96Z"/>
    <line class="ship-2" x1="207.75" y1="27.06" x2="211.46" y2="31.5"/>
    <line class="ship-2" x1="221.91" y1="26.8" x2="218.43" y2="31.5"/>
    <line class="ship-2" x1="210.77" y1="27.58" x2="210.77" y2="29.67"/>
    <line class="ship-2" x1="212.86" y1="27.58" x2="212.86" y2="29.41"/>
    <line class="ship-2" x1="214.94" y1="27.58" x2="214.94" y2="29.41"/>
    <line class="ship-2" x1="216.8" y1="27.58" x2="216.8" y2="29.41"/>
    <line class="ship-2" x1="218.66" y1="27.58" x2="218.66" y2="29.41"/>
    <line class="ship-2" x1="211.46" y1="31.5" x2="218.43" y2="31.5"/>
  </g>
</svg>