<?xml version="1.0" encoding="UTF-8"?>
<svg id="spongeBob" data-name="spongeBob" xmlns="http://www.w3.org/2000/svg" viewBox="0 0 620.65 721.08">
  <defs>
    <style>
      .spongeBob-1 {
        fill: #d20b08;
      }

      .spongeBob-1, .spongeBob-2, .spongeBob-3, .spongeBob-4, .spongeBob-5, .spongeBob-6, .spongeBob-7, .spongeBob-8, .spongeBob-9, .spongeBob-10, .spongeBob-11, .spongeBob-12, .spongeBob-13, .spongeBob-14, .spongeBob-15, .spongeBob-16, .spongeBob-17, .spongeBob-18, .spongeBob-19 {
        stroke-miterlimit: 10;
      }

      .spongeBob-1, .spongeBob-2, .spongeBob-3, .spongeBob-4, .spongeBob-5, .spongeBob-6, .spongeBob-8, .spongeBob-9, .spongeBob-10, .spongeBob-12, .spongeBob-13, .spongeBob-14, .spongeBob-16, .spongeBob-17, .spongeBob-18, .spongeBob-19 {
        stroke: #000;
      }

      .spongeBob-1, .spongeBob-2, .spongeBob-4, .spongeBob-7, .spongeBob-10, .spongeBob-12, .spongeBob-14, .spongeBob-16, .spongeBob-19 {
        stroke-width: 2px;
      }

      .spongeBob-2, .spongeBob-9, .spongeBob-20 {
        fill: #fefefe;
      }

      .spongeBob-3 {
        fill: #bf6a0f;
      }

      .spongeBob-3, .spongeBob-5, .spongeBob-6, .spongeBob-17, .spongeBob-18 {
        stroke-width: 3px;
      }

      .spongeBob-4, .spongeBob-5, .spongeBob-21, .spongeBob-15 {
        fill: #f1ef42;
      }

      .spongeBob-22 {
        opacity: .5;
      }

      .spongeBob-6 {
        fill: #904605;
      }

      .spongeBob-23 {
        fill: #5c930c;
      }

      .spongeBob-7 {
        stroke: #fff;
      }

      .spongeBob-7, .spongeBob-13, .spongeBob-16, .spongeBob-17 {
        fill: #fff;
      }

      .spongeBob-8 {
        fill: none;
        stroke-linecap: round;
      }

      .spongeBob-8, .spongeBob-9 {
        stroke-width: 5px;
      }

      .spongeBob-24 {
        opacity: .8;
      }

      .spongeBob-25 {
        opacity: .4;
      }

      .spongeBob-11 {
        stroke: #e9002e;
      }

      .spongeBob-11, .spongeBob-26 {
        fill: #e9002e;
      }

      .spongeBob-12 {
        fill: #4dcfe9;
      }

      .spongeBob-13 {
        stroke-width: 4px;
      }

      .spongeBob-14 {
        fill: #003e94;
      }

      .spongeBob-27 {
        fill: #6b9999;
      }

      .spongeBob-15 {
        stroke: #5c930c;
        stroke-width: 10px;
      }

      .spongeBob-28 {
        fill: #b7da02;
      }

      .spongeBob-18 {
        fill: #914605;
      }

      .spongeBob-19 {
        fill: #d4000b;
      }
    </style>
  </defs>
  <g>
    <path d="M183.15,651.02c-.68,.74-.3,.68-3,5-1.99,3.19-3.53,5.35-4,6-.53,.74-2.7,3.74-6,7-1.31,1.3-2,1.84-3,2-1.61,.25-2.81-.7-5-2,0,0-2.99-1.77-6-3-5.27-2.16-10.7-.42-12,0-4.7,1.51-7.48,4.39-9,6-4.1,4.35-5.45,9.02-6,11-1.93,6.96-.57,12.7,0,15,.61,2.47,1.9,7.37,6,12,3.29,3.72,6.77,5.42,10,7,3.06,1.5,7.63,3.68,14,4,2.82,.14,8.72,.36,15-3,3.6-1.93,7.33-3.93,9-8,1.01-2.46,.99-5,3-6,1.31-.66,2.77-.3,4,0,3.11,.76,3.53,2.4,6,3,2.2,.53,4.1-.23,6-1,3.24-1.3,3.26-2.5,7-5,5.07-3.39,7.91-3.11,9-6,.12-.33,.88-2.33,0-4-.86-1.64-2.53-1.51-3-3-.3-.93,.2-1.47,1-4,.34-1.09,.56-2.06,1-4,.23-1.02,.86-3.87,1-7,.12-2.78,.25-5.71-1-9-1.25-3.28-3.25-5.26-5-7-3.61-3.58-7.35-5.32-9-6-5.3-2.2-15.74-4.64-20,0Z"/>
    <ellipse class="spongeBob-20" cx="154.28" cy="681.94" rx="6.54" ry="9.39" transform="translate(-285.22 138.17) rotate(-26.2)"/>
    <polygon class="spongeBob-27" points="190.15 701.02 197.15 703.24 197.15 695.02 190.15 701.02"/>
  </g>
  <g>
    <path d="M371.57,650.02c.68,.74,.3,.68,3,5,1.99,3.19,3.53,5.35,4,6,.53,.74,2.7,3.74,6,7,1.31,1.3,2,1.84,3,2,1.61,.25,2.81-.7,5-2,0,0,2.99-1.77,6-3,5.27-2.16,10.7-.42,12,0,4.7,1.51,7.48,4.39,9,6,4.1,4.35,5.45,9.02,6,11,1.93,6.96,.57,12.7,0,15-.61,2.47-1.9,7.37-6,12-3.29,3.72-6.77,5.42-10,7-3.06,1.5-7.63,3.68-14,4-2.82,.14-8.72,.36-15-3-3.6-1.93-7.33-3.93-9-8-1.01-2.46-.99-5-3-6-1.31-.66-2.77-.3-4,0-3.11,.76-3.53,2.4-6,3-2.2,.53-4.1-.23-6-1-3.24-1.3-3.26-2.5-7-5-5.07-3.39-7.91-3.11-9-6-.12-.33-.88-2.33,0-4,.86-1.64,2.53-1.51,3-3,.3-.93-.2-1.47-1-4-.34-1.09-.56-2.06-1-4-.23-1.02-.86-3.87-1-7-.12-2.78-.25-5.71,1-9,1.25-3.28,3.25-5.26,5-7,3.61-3.58,7.35-5.32,9-6,5.3-2.2,15.74-4.64,20,0Z"/>
    <ellipse class="spongeBob-20" cx="400.44" cy="680.94" rx="9.39" ry="6.54" transform="translate(-387.33 739.61) rotate(-63.8)"/>
    <polygon class="spongeBob-27" points="364.57 700.02 357.57 702.24 357.57 694.02 364.57 700.02"/>
  </g>
  <g>
    <rect class="spongeBob-4" x="183.15" y="547.02" width="20" height="49" rx=".03" ry=".03"/>
    <path class="spongeBob-2" d="M183.18,596.02h19.94s.03,.01,.03,.03v63.48c0,5.79-4.7,10.49-10.49,10.49h0c-5.25,0-9.51-4.26-9.51-9.51v-64.46s.01-.03,.03-.03Z"/>
    <rect class="spongeBob-14" x="183.15" y="607.02" width="20" height="5" rx=".03" ry=".03"/>
    <rect class="spongeBob-19" x="183.15" y="617.02" width="20" height="5" rx=".03" ry=".03"/>
  </g>
  <g>
    <rect class="spongeBob-4" x="350.15" y="547.02" width="20" height="49" rx="1.1" ry="1.1"/>
    <path class="spongeBob-2" d="M351.25,596.02h17.81c.6,0,1.1,.49,1.1,1.1v62.96c0,5.49-4.46,9.95-9.95,9.95h0c-5.55,0-10.05-4.5-10.05-10.05v-62.85c0-.6,.49-1.1,1.1-1.1Z"/>
    <rect class="spongeBob-14" x="350.15" y="607.02" width="20" height="5" rx="1.1" ry="1.1"/>
    <rect class="spongeBob-19" x="350.15" y="617.02" width="20" height="5" rx="1.1" ry="1.1"/>
  </g>
  <rect class="spongeBob-3" x="104.65" y="448.52" width="349" height="70"/>
  <rect x="291.15" y="464.02" width="57" height="20"/>
  <rect x="198.15" y="464.02" width="57" height="20"/>
  <rect x="120.15" y="464.02" width="57" height="20"/>
  <rect class="spongeBob-17" x="104.65" y="398.52" width="349" height="50"/>
  <g>
    <polygon class="spongeBob-1" points="273.15 419.02 247.15 479.02 274.15 507.02 300.15 481.02 273.15 419.02"/>
    <ellipse class="spongeBob-1" cx="272.15" cy="412.02" rx="17" ry="26"/>
  </g>
  <polygon class="spongeBob-17" points="229.53 439.87 155.92 397.37 179.42 356.66 262.65 405.52 229.53 439.87"/>
  <polyline class="spongeBob-17" points="396.65 389.52 314.9 440.27 280.65 400.52"/>
  <path class="spongeBob-5" d="M58.65,347.52c-.83,.78-.92,1.9-1,3-.6,8.5-1,17-1,17,0,0-7.06,64.51-7.5,68.5h0c-1.9,8.56-2.85,12.84-3.5,17.5-.2,1.46-.29,2.31-1,3-.8,.78-1.72,.64-5.94,1.73-.55,.14-.91,.23-1.06,.27-4.49,1.16-8.18,5.42-10,9-1.45,2.87-1.83,5.68-2,7-.32,2.55-.19,4.87-1,9-.35,1.78-.58,2.39-1,3-.98,1.43-2.52,2.16-6,3-5.94,1.43-6.87,.59-10,2-1.56,.7-3.65,1.68-5,4-1.59,2.74-1.1,5.51-1,6,.14,.72,.67,3.41,3,5,1.75,1.2,3.57,1.11,6,1,3.17-.15,5.51-1.04,8-2,2.94-1.14,4.41-1.71,6-3,3.7-3,4.72-7.12,5-7,.25,.11-.86,3.22-2,6-1.35,3.28-2.02,4.92-3,6-.84,.92-2.56,1.95-6,4-2.67,1.59-3.42,1.9-4,3-1.16,2.2-.13,4.69,0,5,1.19,2.77,4.01,3.68,5,4,2.52,.81,4.68,.32,6,0,3.42-.83,5.61-2.75,7-4,3.67-3.3,5.23-7.09,6-9,1.02-2.53,1.75-4.35,2-7,.24-2.52-.11-4.06,1-5,1.04-.88,2.94-.9,4,0,.72,.61,.91,1.52,1,3,.2,3.18-.25,6.09-1,9-.58,2.27-1,3.9-2,6-1.16,2.44-1.71,2.56-2,4-.68,3.37,1.54,6.38,2,7,.68,.91,2.71,3.67,6,4,3.12,.31,5.47-1.77,8-4,1.22-1.08,3.61-3.27,5-7,1.16-3.11,1.06-5.82,1-7-.02-.49-.35-2.34-1-6-.63-3.52-.72-4.16-1-5-.89-2.71-2-5-2-5-.79-1.63-1.21-2.19-1-3,.31-1.17,1.75-2.14,3-2,.55,.06,1.23,.36,3,3,1.97,2.94,1.84,3.66,3,5,1.21,1.4,2.5,1.94,5,3,3.19,1.35,5.23,2.21,8,2,.85-.06,5.23-.4,8-4,.49-.64,2.16-2.87,2-6-.04-.73-.16-3.24-2-5-1.07-1.03-2.38-1.35-5-2-3.53-.87-3.71-.29-5-1-3.08-1.69-3.82-5.93-4-7-.29-1.7,.07-1.66,0-5-.07-3.59-.11-5.61-1-8-.47-1.26-1.47-3.96-4-6-2.19-1.77-3.03-1.56-4-3-1.07-1.59-.6-2.98,0-8,.74-6.13,1-12,1-12,1.7-22.33,2-26,2-26s1.91-23.3,6-57c0-.02,.94-4.95-1-7-1-1.06-1.92-.53-7-1-4.94-.46-6.72-1.21-8,0Z"/>
  <path class="spongeBob-5" d="M491.51,335.52c.83,.78,.92,1.9,1,3,.6,8.5,1,17,1,17,0,0,7.06,64.51,7.5,68.5h0c1.9,8.56,2.85,12.84,3.5,17.5,.2,1.46,.29,2.31,1,3,.8,.78,1.72,.64,5.94,1.73,.55,.14,.91,.23,1.06,.27,4.49,1.16,8.18,5.42,10,9,1.45,2.87,1.83,5.68,2,7,.32,2.55,.19,4.87,1,9,.35,1.78,.58,2.39,1,3,.98,1.43,2.52,2.16,6,3,5.94,1.43,6.87,.59,10,2,1.56,.7,3.65,1.68,5,4,1.59,2.74,1.1,5.51,1,6-.14,.72-.67,3.41-3,5-1.75,1.2-3.57,1.11-6,1-3.17-.15-5.51-1.04-8-2-2.94-1.14-4.41-1.71-6-3-3.7-3-4.72-7.12-5-7-.25,.11,.86,3.22,2,6,1.35,3.28,2.02,4.92,3,6,.84,.92,2.56,1.95,6,4,2.67,1.59,3.42,1.9,4,3,1.16,2.2,.13,4.69,0,5-1.19,2.77-4.01,3.68-5,4-2.52,.81-4.68,.32-6,0-3.42-.83-5.61-2.75-7-4-3.67-3.3-5.23-7.09-6-9-1.02-2.53-1.75-4.35-2-7-.24-2.52,.11-4.06-1-5-1.04-.88-2.94-.9-4,0-.72,.61-.91,1.52-1,3-.2,3.18,.25,6.09,1,9,.58,2.27,1,3.9,2,6,1.16,2.44,1.71,2.56,2,4,.68,3.37-1.54,6.38-2,7-.68,.91-2.71,3.67-6,4-3.12,.31-5.47-1.77-8-4-1.22-1.08-3.61-3.27-5-7-1.16-3.11-1.06-5.82-1-7,.02-.49,.35-2.34,1-6,.63-3.52,.72-4.16,1-5,.89-2.71,2-5,2-5,.79-1.63,1.21-2.19,1-3-.31-1.17-1.75-2.14-3-2-.55,.06-1.23,.36-3,3-1.97,2.94-1.84,3.66-3,5-1.21,1.4-2.5,1.94-5,3-3.19,1.35-5.23,2.21-8,2-.85-.06-5.23-.4-8-4-.49-.64-2.16-2.87-2-6,.04-.73,.16-3.24,2-5,1.07-1.03,2.38-1.35,5-2,3.53-.87,3.71-.29,5-1,3.08-1.69,3.82-5.93,4-7,.29-1.7-.07-1.66,0-5,.07-3.59,.11-5.61,1-8,.47-1.26,1.47-3.96,4-6,2.19-1.77,3.03-1.56,4-3,1.07-1.59,.6-2.98,0-8-.74-6.13-1-12-1-12-1.7-22.33-2-26-2-26s-1.91-23.3-6-57c0-.02-.94-4.95,1-7,1-1.06,1.92-.53,7-1,4.94-.46,6.72-1.21,8,0Z"/>
  <path class="spongeBob-13" d="M78.65,281.52c-4.92,.33-8.37,4.46-13,10-4.7,5.62-7.12,10.93-12,25-9.2,26.51-8.11,29.32-7,31,2.23,3.35,9.15,4.57,23,7,15.07,2.65,19.36,1.5,21,1,1.57-.48,10.24-3.14,15-11,6.04-9.99,1.76-21.72-2-32-1.44-3.94-11.66-31.9-25-31Z"/>
  <path class="spongeBob-13" d="M470.94,277.52c4.92,.33,8.37,4.46,13,10,4.7,5.62,7.12,10.93,12,25,9.2,26.51,8.11,29.32,7,31-2.23,3.35-9.15,4.57-23,7-15.07,2.65-19.36,1.5-21,1-1.57-.48-10.24-3.14-15-11-6.04-9.99-1.76-21.72,2-32,1.44-3.94,11.66-31.9,25-31Z"/>
  <path class="spongeBob-15" d="M64.15,11.02c4.6-2.07,8.45,3.43,19,7,1.07,.36,11.74,3.85,24,2,10.27-1.55,10.75-5.19,25-9,8.34-2.23,13.34-3.57,20-3,12.11,1.04,13.77,7.03,29,10,2.8,.55,9.5,1.66,18,1,9.94-.78,18.73-4.33,23-6,7.1-2.78,8.73-4.31,14-5,5.21-.68,9.28,.08,14,1,7.98,1.56,10.26,3.33,19,6,8.64,2.64,12.95,3.95,18,4,3.75,.03,5.69-.54,26-7,11.57-3.68,12.57-4.01,15-4,6.86,.03,8.23,2.69,20,6,7.84,2.21,12.7,3.58,19,3,5.33-.49,6.78-1.92,18-6,10.81-3.93,16.21-5.9,19-6,11.43-.41,12.88,7.44,31,12,5.41,1.36,11.78,2.97,20,2,4.6-.54,5.78-1.42,18-4,10.98-2.32,13.49-2.35,16-1,4.37,2.35,5.88,7.31,7,11,2.94,9.67-.08,18.43-1,21-2.46,6.86-4.61,6.44-7,14-2,6.33-2.07,11.58-2,14,.09,3.36,.24,8.5,3,14,1.53,3.04,2.1,2.7,3,5,1.09,2.79,1.27,5.9-1,15-1.14,4.56-2.33,9.26-5,16-3.19,8.06-3.99,7.65-5,12-.51,2.18-1.74,8.47,0,16,1.23,5.31,2.53,5.16,4,10,3.34,11.01-.32,21.97-2,27-2.23,6.69-3.62,6.81-5,13-1.26,5.65-1.13,10.18-1,15,.19,6.75,1.16,12.8,2,18,.69,4.28,.79,4,1,6,.28,2.65,.63,8.25-1,16-2.02,9.6-4.29,9.19-6,18-1,5.13-1,9.24-1,14,0,4.22,.33,8.15,1,16,.71,8.4,.85,7.69,1,11,.33,7.28,.56,12.29-1,18-2.02,7.41-4.57,6.85-7,15-.91,3.04-1.27,7.03-2,15-.85,9.29-1.27,13.93-1,17,.43,4.85,1.43,8.57,0,14-.44,1.69-.86,3.26-2,5-3.61,5.49-10.47,6.59-13,7-6.47,1.04-11.94-.7-16-2-4.99-1.59-4.61-2.4-8-3-5.23-.93-9.63,.36-15,2-6.62,2.02-6.24,3.06-11,4-2.38,.47-7.24,1.16-13,0-5.89-1.18-5.66-2.87-11-4-6.41-1.36-11.88-.01-16,1-6.54,1.61-6.08,2.88-13,5-5.13,1.57-12.14,3.72-20,2-5.73-1.26-4.91-3.04-12-5-9.11-2.52-16.56-1.26-18-1-6.44,1.17-5.69,2.84-12,4-7.26,1.34-13.51,.09-19-1-7.37-1.47-6.82-2.5-12-3-1.48-.14-8.4-.73-17,2-7.11,2.26-5.78,3.74-11,5-9.55,2.31-19.02-1.43-23-3-4.51-1.78-4.17-2.39-7-3-6.69-1.44-9.73,1.74-18,3-7.53,1.15-13.81-.14-18-1-8.28-1.7-9.41-3.8-16-4-3.51-.11-6.67,.6-13,2-10.63,2.36-11.42,3.8-17,4-3.46,.12-8.77,.31-14-3-1.08-.68-6.23-3.94-8-10-1.22-4.18,.23-6.03,1-14,.66-6.82,.24-12.09,0-15-.39-4.61-.96-11.36-4-19-3.42-8.59-6.08-8.54-8-16-1.28-4.97-1.15-9.1-1-14,.22-7.02,1.23-8.47,2-16,.65-6.29,1.29-12.6,0-20-1.43-8.18-3.6-8.4-6-19-.94-4.16-2.02-8.91-2-15,.03-10.55,3.29-12.18,4-24,.25-4.14,.56-9.44-1-16-2.36-9.89-6.13-10.65-8-20-1.43-7.13-.55-13.23,0-17,1.19-8.23,2.99-8.43,4-16,.3-2.28,1.16-9.93-1-19-2.11-8.85-4.62-8.68-7-17-2.71-9.5-1.73-17.78-1-24,1.53-12.94,4.84-13.79,4-23-.58-6.33-2.74-12.44-4-16-2.74-7.76-3.75-7.16-5-12-2.27-8.75-.43-16.22,1-22,1.91-7.73,2.86-11.59,6-13Z"/>
  <g>
    <circle class="spongeBob-9" cx="211.65" cy="157.52" r="68"/>
    <ellipse class="spongeBob-12" cx="221.15" cy="161.02" rx="32" ry="33"/>
    <circle class="spongeBob-10" cx="221.15" cy="162.02" r="15"/>
    <circle class="spongeBob-7" cx="212.15" cy="146.02" r="7"/>
    <circle class="spongeBob-7" cx="228.15" cy="176.02" r="3"/>
  </g>
  <g>
    <circle class="spongeBob-9" cx="341.65" cy="157.52" r="68"/>
    <ellipse class="spongeBob-12" cx="332.15" cy="161.02" rx="32" ry="33"/>
    <circle class="spongeBob-10" cx="332.15" cy="162.02" r="15"/>
    <circle class="spongeBob-7" cx="341.15" cy="146.02" r="7"/>
    <circle class="spongeBob-7" cx="325.15" cy="176.02" r="3"/>
  </g>
  <ellipse class="spongeBob-21" cx="151.65" cy="209.52" rx="39.5" ry="29.5"/>
  <ellipse class="spongeBob-21" cx="402.65" cy="205.02" rx="38.5" ry="26"/>
  <path class="spongeBob-26" d="M130.51,234.72c-11.31-5.55-24.89-17.37-19.92-31.7,2.77-8.15,10.17-13.75,17.53-17.46,15.71-7.38,36.51-9.68,52.02-.72,18.64,11.36,12.76,33.15,1.72,47.79,0,0-.44-.24-.44-.24,1.54-2.94,3.04-5.9,4.22-8.99,2.42-6.08,4.05-12.75,3.16-19.3-2.56-18.16-24.55-21.76-39.69-19.56-17.35,1.69-46.12,15.01-32.56,36.13,3.64,5.51,8.84,9.83,14.23,13.64l-.28,.41h0Z"/>
  <path class="spongeBob-26" d="M382.51,230.72c-11.31-5.55-24.89-17.37-19.92-31.7,2.77-8.15,10.17-13.75,17.53-17.46,15.71-7.38,36.51-9.68,52.02-.72,18.64,11.36,12.76,33.15,1.72,47.79,0,0-.44-.24-.44-.24,1.54-2.94,3.04-5.9,4.22-8.99,2.42-6.08,4.05-12.75,3.16-19.3-2.56-18.16-24.55-21.76-39.69-19.56-17.35,1.69-46.12,15.01-32.56,36.13,3.64,5.51,8.84,9.83,14.23,13.64l-.28,.41h0Z"/>
  <circle class="spongeBob-11" cx="129.65" cy="208.52" r="3"/>
  <circle class="spongeBob-11" cx="151.65" cy="197.52" r="2"/>
  <circle class="spongeBob-11" cx="409.65" cy="191.52" r="2"/>
  <circle class="spongeBob-11" cx="176.15" cy="205.02" r="1.5"/>
  <path d="M137.43,227.14c2.82-17.67,29.35-23.34,39.19-8.43,0,0-.27,.42-.27,.42-1.42-.83-3.39-1.81-4.9-2.38-11.09-4.41-24.47-.77-31.96,8.48,0,0-1.65,2.18-1.65,2.18l-.42-.27h0Z"/>
  <path d="M387.32,212.01c11.84-13.43,37.29-4.02,37.62,13.85,0,0-.45,.21-.45,.21-.75-1.46-1.9-3.34-2.87-4.64-7.01-9.66-20.26-13.74-31.54-9.93,0,0-2.56,.96-2.56,.96l-.21-.45h0Z"/>
  <circle class="spongeBob-11" cx="431.65" cy="208.52" r="3"/>
  <circle class="spongeBob-11" cx="376.15" cy="201.02" r="1.5"/>
  <ellipse class="spongeBob-21" cx="276.65" cy="209.02" rx="25.5" ry="32"/>
  <path d="M253.3,220.56c-4.09-11.36-4.46-24.66,2.82-35.34,6.9-10.3,21.18-14.76,32.73-10.02,12.22,4.53,18.67,17.68,16.67,30.17-1.29,9.23-6.11,17.77-11.87,24.6-3.84,4.45-8.01,8.47-12.74,11.79-.33,.27-.81-.08-.52-.47,10.17-11.94,21.68-28.2,18.47-44.65-1.13-5.34-4.34-10.22-8.96-13.11-9.34-6.21-22.61-3.61-29.39,5.2-6.99,8.83-7.77,20.9-6.51,31.74,.06,.43-.61,.54-.69,.09h0Z"/>
  <rect x="167.04" y="69.03" width="11.27" height="31.64" transform="translate(-18.56 63.77) rotate(-19.88)"/>
  <rect x="246.04" y="69.03" width="11.27" height="31.64" transform="translate(459.51 250.22) rotate(-160.12)"/>
  <rect x="208.27" y="62.99" width="11.27" height="28.52"/>
  <rect x="296.76" y="67.91" width="11.27" height="31.64" transform="translate(-10.45 107.81) rotate(-19.88)"/>
  <rect x="375.76" y="67.91" width="11.27" height="31.64" transform="translate(711.59 292.16) rotate(-160.12)"/>
  <rect x="337.99" y="61.87" width="11.27" height="28.52"/>
  <polygon class="spongeBob-16" points="279.15 309.02 237.15 309.02 237.15 272.02 279.15 277.02 279.15 309.02"/>
  <polygon class="spongeBob-16" points="323.15 309.02 285.15 309.02 285.15 277.02 323.15 272.02 323.15 309.02"/>
  <path class="spongeBob-8" d="M152.65,214.52c64.45,84.36,191,84,257-3"/>
  <g class="spongeBob-22">
    <path class="spongeBob-28" d="M399.62,322.41c-7.65,11.16-11.57,24.75-4.47,29.61,7.09,4.86,22.52-.85,30.17-12.01,7.65-11.16,8.73-25.24,1-29.01-8.16-3.98-19.04,.25-26.69,11.42Z"/>
    <path class="spongeBob-23" d="M392.85,350.03c-4.57-9.73-2.47-21.74,4.21-30.18,6.6-8.47,18.91-13.2,29.08-9.13,0,0,.02,.6,.02,.6-2.12,.17-4.96,.57-6.98,1.09-15.73,3.66-24.94,18.56-25.64,34.05,0,0-.09,3.55-.09,3.55,0,0-.6,.02-.6,.02h0Z"/>
  </g>
  <g class="spongeBob-22">
    <path class="spongeBob-28" d="M377.04,368.93c-3.37,4.92-5.1,10.91-1.97,13.06s9.93-.37,13.3-5.3,3.85-11.13,.44-12.8c-3.6-1.75-8.4,.11-11.77,5.04Z"/>
    <path class="spongeBob-23" d="M374.04,381.11c-4.84-9.1,4.71-21.45,14.7-17.36,0,0,.01,.3,.01,.3-6.36,.21-11.91,4.79-13.57,10.89-.58,1.99-.85,4.07-.84,6.16,0,0-.3,.01-.3,.01h0Z"/>
  </g>
  <g class="spongeBob-22">
    <path class="spongeBob-28" d="M97.91,65.16c-5.79,12.23-7.51,26.26,.26,29.94,7.77,3.68,22.1-4.39,27.89-16.63,5.79-12.23,4.63-26.31-3.6-28.8-8.69-2.64-18.76,3.26-24.55,15.49Z"/>
    <path class="spongeBob-23" d="M95.58,93.5c-6.05-8.89-5.87-21.08-.61-30.46,5.18-9.41,16.59-16.02,27.27-13.61,0,0,.12,.59,.12,.59-2.07,.5-4.8,1.35-6.73,2.18-14.96,6.1-21.7,22.26-19.94,37.67,0,0,.47,3.52,.47,3.52,0,0-.59,.12-.59,.12h0Z"/>
  </g>
  <g class="spongeBob-22">
    <path class="spongeBob-28" d="M91.21,126.87c-.57,5.94,.82,12.02,4.6,12.38s8.51-5.14,9.07-11.08-2.02-11.61-5.81-11.41c-4,.21-7.29,4.17-7.86,10.11Z"/>
    <path class="spongeBob-23" d="M94.48,138.98c-8.64-5.62-6.27-21.04,4.46-22.3,0,0,.15,.26,.15,.26-7.76,4.71-8.76,14.47-4.35,21.89,0,0-.26,.15-.26,.15h0Z"/>
  </g>
  <g class="spongeBob-22">
    <path class="spongeBob-28" d="M421.38,58.71c-1.09,7.46,1.59,15.09,8.89,15.54s16.45-6.45,17.54-13.91c1.09-7.46-3.91-14.57-11.23-14.32-7.73,.26-14.1,5.23-15.19,12.69Z"/>
    <path class="spongeBob-23" d="M427.84,73.92c-10.18-5.57-10.49-19.11-.49-25.15,2.8-1.73,5.9-2.68,9.06-2.83l.11,.28c-2.73,1.18-5.37,2.57-7.68,4.41-4.71,3.55-7.36,9.82-5.31,15.54,.93,2.79,2.59,5.32,4.54,7.54l-.22,.2h0Z"/>
  </g>
  <g class="spongeBob-22">
    <path class="spongeBob-28" d="M137.68,372.87c-6.43-8.04-9.42-17.66-2.82-20.83s20.26,1.3,26.69,9.35c6.43,8.04,6.84,17.92-.28,20.3-7.52,2.52-17.15-.78-23.59-8.82Z"/>
    <path class="spongeBob-23" d="M133.27,353.41c6.27,15.14,14.56,19.7,27.87,27.96,0,0-.04,.6-.04,.6-11.72-.34-23.68-6.3-27.5-18.02-.77-2.51-1.18-5.14-1.14-7.76,.05-.95,.14-1.9,.21-2.84l.6,.06h0Z"/>
  </g>
  <g class="spongeBob-22">
    <path class="spongeBob-28" d="M115.93,322.32c-2.74-4.16-4.01-9.13-1.2-10.77s8.62,.67,11.36,4.83,2.91,9.27-.12,10.5c-3.2,1.3-7.3-.4-10.03-4.56Z"/>
    <path class="spongeBob-23" d="M114.07,312.25c1.58,3.2,2.71,5.75,4.74,8.29,2.02,2.55,4.18,4.11,7.1,6.19,0,0-.02,.3-.02,.3-5.47-.12-10.58-4.06-11.77-9.46-.46-1.74-.55-3.57-.34-5.34l.3,.03h0Z"/>
  </g>
  <g class="spongeBob-25">
    <g>
      <path class="spongeBob-23" d="M204.28,319.87c6.24,4,11.43,9.17,17.41,13.44,11.5,8.72,24.22,12.24,38.51,9.48,6.91-1.21,13.78-3.54,20.85-5.95l.2,.35c-3.21,1.81-6.45,3.57-9.84,5.01-24,10.62-42.49,4.79-59.72-14.13-2.55-2.65-5.01-5.39-7.67-7.9l.27-.29h0Z"/>
      <path class="spongeBob-23" d="M283.26,334.85c16.48,5.71,32.94,9.52,48.37-.69,4.88-3.14,9.09-7.15,13.36-11.25,0,0,.34,.21,.34,.21-1.61,2.52-3.32,5-5.26,7.29-10.36,12.4-25.24,16.86-40.71,12.25-5.8-1.61-11.26-4.26-16.3-7.47,0,0,.21-.34,.21-.34h0Z"/>
      <path class="spongeBob-23" d="M316.1,344.21c-10.09,.17-19.46-2.66-29.32-3.06-12.6-.51-24.2,3.42-36.55,6.05,0,0-.17-.36-.17-.36,16.1-8.05,31.79-12.6,49.63-7.42,5.54,1.38,10.97,3.08,16.5,4.41l-.09,.39h0Z"/>
    </g>
  </g>
  <g class="spongeBob-24">
    <path class="spongeBob-26" d="M203.39,318.76c6.75,3.1,12.54,7.78,18.74,11.39,11.62,7.27,23.15,9.63,36.68,7.65,6.72-.86,13.64-2.62,21.17-4.09l.35,.61c-25.81,15.38-48.52,15.54-69.8-7.2-2.55-2.62-5-5.33-7.61-7.84l.47-.51h0Z"/>
    <path class="spongeBob-26" d="M282.33,331.72c16.58,2.94,32.5,6.95,47.77-1.31,5.07-2.55,9.98-6.28,14.75-9.58,0,0,.59,.37,.59,.37-1.61,2.57-3.34,5.09-5.32,7.42-10.77,12.64-26.03,16.4-41.7,11.47-5.85-1.73-11.36-4.46-16.46-7.78,0,0,.37-.59,.37-.59h0Z"/>
    <path class="spongeBob-26" d="M314.07,340.36c-11.25,2.09-22.56-1.79-33.12-1.57-10.68,.02-20.49,3.72-31.61,5.52,0,0-.38-.59-.38-.59,9.5-6.33,20.24-11.73,31.92-11.93,10.18-.05,19.64,4.01,29.23,6.77,0,0,4.11,1.12,4.11,1.12,0,0-.16,.68-.16,.68h0Z"/>
  </g>
  <rect x="381.15" y="464.02" width="57" height="20"/>
  <path class="spongeBob-18" d="M155.65,518.52v23.05c-.04,.29-.04,.58,0,.87v.48c0,1.67,.46,4.19,2,4.6,5.81,4.73,20.75,7.61,35,8,15.1,.41,33.33-1.71,38-8,.78-.45,1-2.66,1-3.63v-25.37h-76Z"/>
  <path class="spongeBob-6" d="M322.65,518.52v23.05c-.04,.29-.04,.58,0,.87v.48c0,1.67,.46,4.19,2,4.6,5.81,4.73,20.75,7.61,35,8,15.1,.41,33.33-1.71,38-8,.78-.45,1-2.66,1-3.63v-25.37h-76Z"/>
</svg>