<?xml version="1.0" encoding="UTF-8"?>
<svg id="_Шар_1" data-name="Шар 1" xmlns="http://www.w3.org/2000/svg" viewBox="0 0 226.84 340.04">
  <defs>
    <style>
      .cls-1 {
        fill: #dbd58f;
      }

      .cls-1, .cls-2, .cls-3, .cls-4 {
        stroke: #000;
        stroke-linecap: round;
        stroke-linejoin: round;
      }

      .cls-2 {
        fill: #d8a32b;
      }

      .cls-2, .cls-4 {
        stroke-width: 4px;
      }

      .cls-3 {
        fill: #09d822;
      }

      .cls-4 {
        fill: #efe40a;
      }
    </style>
  </defs>
  <path class="cls-2" d="M104.44,107.46c-42.67,57.72-66.41,118.07-66.25,159.79,37.58-16.03,82.22-53.81,120.4-105.46C201.25,104.07,225,43.72,224.84,2c-37.58,16.03-82.22,53.81-120.4,105.46Z"/>
  <path class="cls-4" d="M61.68,177.84c-12.82,33.73-24.33,63.68-22.75,89.47,22.29-9.04,49.26-26.29,72.75-51.47l-50-38Z"/>
  <path class="cls-1" d="M22.22,315.64c3.99-13.55,11.63-20.63,21.05-25.51,4.33-2.25,6.99-6.59,6.81-12.76-.22-7.72-7.84-13.04-13.08-15.07-11.25-4.35-26.26,7.32-33.51,26.08-7.26,18.76,.18,33.76,7.01,43.7,3.27,4.76,9.59,8.41,10.64,6.56-.15-4.92-.48-17.66,1.09-23Z"/>
  <path class="cls-3" d="M23.18,311.34L.68,301.84c-.22,12.09,4.65,22.23,9.33,29.77,3.26,5.25,9.82,9.4,11.03,7.44,.07-5.31-.83-19,1.14-24.7,.33-.96,1.09-3.25,1-3Z"/>
</svg>