<?xml version="1.0" encoding="UTF-8"?>
<svg id="cactus" data-name="Шар 1" xmlns="http://www.w3.org/2000/svg" viewBox="0 0 302.15 336.55">
  <defs>
    <style>
      .cactus-1 {
        fill: #079b07;
      }

      .cactus-1, .cactus-2, .cactus-3 {
        stroke: #000;
        stroke-linecap: round;
        stroke-linejoin: round;
      }

      .cactus-1, .cactus-3 {
        stroke-width: 2px;
      }

      .cactus-2 {
        fill: #563809;
      }

      .cactus-3 {
        fill: none;
      }
    </style>
  </defs>
  <path class="cactus-1" d="M301.1,104.12c-1.24,12.81-26.39,18.48-40.93,11.47-9.64-4.65-16.61-7.74-21.59-9.8-3.27,10.31-9.17,20.1-16.47,27.18-22.32,21.64-28.17,30.36-31.97,32.32,10.22,14.02,16.52,32.94,15.57,48.76-.04,.64-.08,1.27-.12,1.89,6.6-5.8,14.79-9.22,21.54-6.97,12.21,4.06,16.65,25.68,11.41,38.74-8.95,22.34-16.95,15.63-29.17,11.56-7.23-2.4-13.36-3.02-15.85-7.95-9.03,7.4-22.32,4.73-37.81,4.73s-26.86,2.48-35.04-3.96c-4.65,4.8-12.62,4.88-21.49,6.66-16.1,3.23-25.48,10.12-33.32-19.58-4.58-17.35,5.02-44.16,21.13-47.39,7.61-1.53,15.79,2.39,22.55,8.83,1.55-9.11,5.01-18.49,9.8-26.89-4.76-1.39-12.79-8.37-34.17-21.98-13.57-8.63-25.52-24.39-30.42-39.99-4.81-.34-13.38-2.3-29.13-6.25-15.66-3.93-29.07-26.8-23.22-38.27,5.84-11.46,31.32-7.53,42.29,4.32,4.36,4.71,8.03,8.54,11.1,11.66,1.1-1.99,2.47-3.85,4.15-5.55,3.86-3.91,8.04-6.54,12.37-8.09,1.3-4.55,4.4-11.42,10-21.58,6.79-12.32,22.19-34,34.4-29.94s16.4,32.22,9.83,44.66c-5.42,10.25-9.18,16.33-11.96,19.63,7.09,6.57,12.87,14.75,16.25,23.15,10.99,27.28,16.83,36.55,17.77,41.07,1.98-.65,3.99-1.11,6.03-1.33,.58-5.74,3.61-16.2,7.4-37.09,3.08-16.94,14.41-35.25,28.26-45.36-3.74-2.05-6.93-7.45-10.04-19.59-4-15.64,2.96-39.43,15.58-41.97,12.62-2.53,27.77,16.8,30.12,32.77,2.09,14.15,.31,20.33-3.65,23.35,10.82,4.88,16.5,13.46,18.38,23.38,5.14-1.06,12.98-2.18,24.81-3.71,16-2.08,36.85,14.3,35.61,27.11Z"/>
  <polygon class="cactus-2" points="239.71 336.05 66.71 336.05 53.71 250.05 255.71 250.05 239.71 336.05"/>
  <path class="cactus-3" d="M109.71,201.05c0,27.08,4.47,49,10,49"/>
  <path class="cactus-3" d="M205.71,216.05c0,18.79-2.68,34-6,34"/>
  <path class="cactus-3" d="M189.71,165.05c-6-8-16.1-20-36-20"/>
  <path class="cactus-3" d="M119.21,174.55c4.5-11.5,13.5-23.5,29.11-27.91"/>
  <path class="cactus-3" d="M189.71,63.05c4.07-3.1,15.41-4.72,33-6"/>
  <path class="cactus-3" d="M240.71,81.05c0,13.82-2,24-2,25"/>
  <path class="cactus-3" d="M72.71,70.05c9-3,31,2,42,12"/>
  <path class="cactus-3" d="M55.71,83.05c-8,18-.45,29-1,29"/>
  <line class="cactus-3" x1="203.21" y1="19.55" x2="202.21" y2="19.55"/>
  <line class="cactus-3" x1="218.21" y1="83.55" x2="216.21" y2="83.55"/>
  <line class="cactus-3" x1="189.21" y1="85.55" x2="187.21" y2="85.55"/>
  <line class="cactus-3" x1="277.21" y1="100.55" x2="275.21" y2="100.55"/>
  <line class="cactus-3" x1="210.21" y1="112.55" x2="208.21" y2="112.55"/>
  <line class="cactus-3" x1="112.21" y1="33.55" x2="110.21" y2="33.55"/>
  <line class="cactus-3" x1="110.21" y1="57.55" x2="108.21" y2="57.55"/>
  <line class="cactus-3" x1="20.21" y1="75.55" x2="18.21" y2="75.55"/>
  <line class="cactus-3" x1="29.21" y1="97.55" x2="27.21" y2="97.55"/>
  <line class="cactus-3" x1="44.21" y1="81.55" x2="44.21" y2="82.55"/>
  <line class="cactus-3" x1="65.21" y1="83.55" x2="65.21" y2="84.55"/>
  <line class="cactus-3" x1="100.21" y1="88.55" x2="100.21" y2="89.55"/>
  <line class="cactus-3" x1="81.21" y1="100.55" x2="81.21" y2="102.55"/>
  <line class="cactus-3" x1="114.21" y1="121.55" x2="114.21" y2="123.55"/>
  <line class="cactus-3" x1="187.21" y1="108.55" x2="187.21" y2="110.55"/>
  <line class="cactus-3" x1="89.21" y1="131.55" x2="89.21" y2="133.55"/>
  <line class="cactus-3" x1="114.21" y1="150.55" x2="114.21" y2="152.55"/>
  <line class="cactus-3" x1="187.21" y1="143.55" x2="187.21" y2="144.55"/>
  <line class="cactus-3" x1="151.21" y1="166.55" x2="151.21" y2="167.55"/>
  <line class="cactus-3" x1="177.21" y1="170.55" x2="177.21" y2="171.55"/>
  <line class="cactus-3" x1="165.21" y1="187.55" x2="165.21" y2="188.55"/>
  <line class="cactus-3" x1="128.21" y1="193.55" x2="128.21" y2="194.55"/>
  <line class="cactus-3" x1="190.21" y1="204.55" x2="190.21" y2="205.55"/>
  <line class="cactus-3" x1="148.21" y1="208.55" x2="148.21" y2="209.55"/>
  <line class="cactus-3" x1="128.21" y1="225.55" x2="128.21" y2="226.55"/>
  <line class="cactus-3" x1="175.21" y1="222.55" x2="177.21" y2="222.55"/>
  <line class="cactus-3" x1="151.21" y1="232.55" x2="153.21" y2="232.55"/>
  <line class="cactus-3" x1="190.21" y1="238.55" x2="192.21" y2="238.55"/>
  <line class="cactus-3" x1="94.21" y1="205.55" x2="96.21" y2="205.55"/>
  <line class="cactus-3" x1="81.21" y1="225.55" x2="83.21" y2="225.55"/>
  <line class="cactus-3" x1="104.21" y1="238.55" x2="106.21" y2="238.55"/>
  <line class="cactus-3" x1="218.21" y1="222.55" x2="220.21" y2="222.55"/>
</svg>