<?xml version="1.0" encoding="UTF-8"?>
<svg id="crisTree" data-name="Шар 1" xmlns="http://www.w3.org/2000/svg" viewBox="0 0 217.5 260.5">
  <defs>
    <style>
      .crisTree-1 {
        fill: #32ba00;
      }

      .crisTree-1, .crisTree-2, .crisTree-3, .crisTree-4, .crisTree-5, .crisTree-6 {
        stroke: #000;
        stroke-linecap: round;
        stroke-linejoin: round;
      }

      .crisTree-2 {
        fill: #d800c4;
      }

      .crisTree-3 {
        fill: #f9f20b;
      }

      .crisTree-4 {
        fill: #f90d0d;
      }

      .crisTree-5 {
        fill: #99740d;
      }

      .crisTree-6 {
        fill: #277fd6;
      }
    </style>
  </defs>
  <polygon class="crisTree-1" points="109.45 111.12 108.05 111.12 108.75 110.34 109.45 111.12"/>
  <polygon class="crisTree-1" points="109.45 111.12 108.05 111.12 108.75 110.34 109.45 111.12"/>
  <polygon class="crisTree-1" points="109.45 111.12 108.05 111.12 108.75 110.34 109.45 111.12"/>
  <rect class="crisTree-5" x="87.45" y="229.73" width="43.47" height="30.27"/>
  <path class="crisTree-1" d="M217,231.37l-55.6-62.17h38.21l-54.43-58.08h21.39L108.96,34.26,51.35,111.12h21.84l-54.43,58.08H56.1L.5,231.37H217ZM108.75,110.34l.7,.79h-1.41l.7-.79Z"/>
  <polygon class="crisTree-3" points="120.67 33.87 109.06 28.25 97.55 34.06 99.64 21.94 90.21 13.44 103.12 11.57 108.79 .5 114.67 11.47 127.61 13.12 118.35 21.78 120.67 33.87"/>
  <polygon class="crisTree-6" points="123.48 103.07 117.66 101.74 113.2 105.48 112.76 99.87 107.59 97.03 113.13 94.9 114.4 89.4 118.26 93.7 124.21 93.14 121.07 97.92 123.48 103.07"/>
  <polygon class="crisTree-2" points="89.57 134.98 83.76 133.64 79.29 137.39 78.85 131.77 73.68 128.94 79.22 126.8 80.49 121.31 84.35 125.6 90.3 125.04 87.16 129.82 89.57 134.98"/>
  <polygon class="crisTree-6" points="171.3 142.34 165.49 141 161.02 144.75 160.58 139.14 155.41 136.3 160.95 134.17 162.22 128.67 166.08 132.96 172.04 132.4 168.89 137.19 171.3 142.34"/>
  <polygon class="crisTree-2" points="138.26 186.51 132.45 185.17 127.98 188.92 127.54 183.31 122.37 180.47 127.91 178.34 129.18 172.84 133.04 177.13 139 176.57 135.85 181.36 138.26 186.51"/>
  <polygon class="crisTree-6" points="45.22 174.24 39.41 172.9 34.95 176.65 34.5 171.04 29.34 168.2 34.87 166.07 36.14 160.57 40.01 164.86 45.96 164.3 42.82 169.09 45.22 174.24"/>
  <polygon class="crisTree-3" points="80.87 185.69 75.06 184.36 70.6 188.1 70.15 182.49 64.98 179.65 70.52 177.52 71.79 172.02 75.66 176.32 81.61 175.75 78.46 180.54 80.87 185.69"/>
  <polygon class="crisTree-2" points="66.09 237.23 60.28 235.89 55.82 239.64 55.37 234.02 50.2 231.19 55.74 229.06 57.01 223.56 60.88 227.85 66.83 227.29 63.68 232.07 66.09 237.23"/>
  <polygon class="crisTree-6" points="110.43 219.23 104.62 217.89 100.16 221.64 99.71 216.03 94.55 213.19 100.08 211.06 101.35 205.56 105.22 209.85 111.17 209.29 108.03 214.08 110.43 219.23"/>
  <polygon class="crisTree-3" points="182.6 192.24 176.79 190.9 172.33 194.65 171.88 189.03 166.71 186.2 172.25 184.06 173.52 178.57 177.39 182.86 183.34 182.3 180.19 187.08 182.6 192.24"/>
  <polygon class="crisTree-4" points="171.3 232.32 165.49 230.98 161.02 234.73 160.58 229.12 155.41 226.28 160.95 224.15 162.22 218.65 166.08 222.94 172.04 222.38 168.89 227.17 171.3 232.32"/>
  <polygon class="crisTree-4" points="127.82 144.79 122.01 143.46 117.55 147.2 117.1 141.59 111.94 138.75 117.47 136.62 118.74 131.12 122.61 135.42 128.56 134.85 125.42 139.64 127.82 144.79"/>
  <polygon class="crisTree-2" points="154.78 92.44 148.97 91.1 144.5 94.85 144.06 89.24 138.89 86.4 144.43 84.27 145.7 78.77 149.56 83.06 155.52 82.5 152.37 87.29 154.78 92.44"/>
  <polygon class="crisTree-4" points="114.78 61.36 108.97 60.02 104.51 63.77 104.06 58.15 98.89 55.32 104.43 53.18 105.7 47.69 109.57 51.98 115.52 51.42 112.37 56.2 114.78 61.36"/>
  <polygon class="crisTree-3" points="78.26 92.44 72.45 91.1 67.99 94.85 67.54 89.24 62.38 86.4 67.91 84.27 69.18 78.77 73.05 83.06 79 82.5 75.86 87.29 78.26 92.44"/>
</svg>