<?xml version="1.0" encoding="UTF-8"?>
<svg id="_Шар_1" data-name="Шар 1" xmlns="http://www.w3.org/2000/svg" viewBox="0 0 1258.33 1033.51">
  <defs>
    <style>
      .cls-1, .cls-2, .cls-3, .cls-4, .cls-5, .cls-6, .cls-7, .cls-8, .cls-9, .cls-10 {
        stroke-miterlimit: 10;
      }

      .cls-1, .cls-6, .cls-9, .cls-10 {
        stroke: #287007;
      }

      .cls-1, .cls-7, .cls-10, .cls-11 {
        stroke-width: 6px;
      }

      .cls-1, .cls-12 {
        fill: #fcfcfc;
      }

      .cls-2, .cls-13, .cls-4, .cls-14, .cls-7, .cls-11 {
        stroke: #050000;
      }

      .cls-2, .cls-4, .cls-7 {
        fill: #020000;
      }

      .cls-3 {
        fill: #ebef56;
      }

      .cls-3, .cls-15, .cls-16, .cls-17, .cls-13, .cls-4, .cls-5, .cls-18, .cls-19, .cls-6, .cls-20, .cls-8 {
        stroke-width: 4px;
      }

      .cls-3, .cls-15, .cls-21 {
        stroke: #000;
      }

      .cls-22 {
        fill: #276606;
      }

      .cls-15, .cls-16, .cls-17, .cls-13, .cls-23, .cls-18, .cls-19, .cls-14, .cls-24, .cls-25, .cls-26, .cls-21, .cls-20, .cls-9, .cls-27, .cls-10, .cls-28, .cls-11, .cls-29 {
        stroke-linecap: round;
      }

      .cls-15, .cls-16, .cls-17, .cls-13, .cls-23, .cls-18, .cls-19, .cls-14, .cls-24, .cls-25, .cls-26, .cls-21, .cls-20, .cls-27, .cls-28, .cls-11, .cls-29 {
        stroke-linejoin: round;
      }

      .cls-15, .cls-17, .cls-13, .cls-5, .cls-14, .cls-6, .cls-21, .cls-20, .cls-8, .cls-9, .cls-27, .cls-10, .cls-28, .cls-11, .cls-29 {
        fill: none;
      }

      .cls-30 {
        fill: #7f611d;
      }

      .cls-31 {
        opacity: .5;
      }

      .cls-32 {
        opacity: .2;
      }

      .cls-16, .cls-18, .cls-25 {
        fill: #296804;
      }

      .cls-16, .cls-25, .cls-29 {
        stroke: #fff;
      }

      .cls-17, .cls-23, .cls-5, .cls-19, .cls-26, .cls-27, .cls-28 {
        stroke: #276606;
      }

      .cls-23 {
        fill: #f8f9f7;
      }

      .cls-23, .cls-26, .cls-27, .cls-29 {
        stroke-width: 3px;
      }

      .cls-18 {
        stroke: #f8f9f7;
      }

      .cls-19, .cls-26 {
        fill: #fff;
      }

      .cls-24 {
        fill: #010200;
        stroke: #010200;
      }

      .cls-25 {
        stroke-width: 15px;
      }

      .cls-33 {
        fill: #287007;
      }

      .cls-34 {
        fill: #4e7529;
      }

      .cls-21 {
        stroke-width: 7px;
      }

      .cls-20, .cls-8 {
        stroke: #f9f9f9;
      }

      .cls-9, .cls-28 {
        stroke-width: 2px;
      }

      .cls-35 {
        fill: #693;
      }

      .cls-36 {
        opacity: .3;
      }
    </style>
  </defs>
  <line class="cls-15" x1="204.91" y1="560.93" x2="154.82" y2="804.51"/>
  <ellipse class="cls-3" cx="208.12" cy="543.51" rx="6.7" ry="5.03" transform="translate(-361.35 663.6) rotate(-80.96)"/>
  <ellipse class="cls-3" cx="182.05" cy="577.52" rx="5.74" ry="4.31" transform="translate(-416.91 666.52) rotate(-80.96)"/>
  <ellipse class="cls-3" cx="217.69" cy="586.15" rx="5.74" ry="4.31" transform="translate(-395.39 709) rotate(-80.96)"/>
  <line class="cls-15" x1="16.25" y1="627.5" x2="134.38" y2="846.33"/>
  <ellipse class="cls-3" cx="7.52" cy="612.09" rx="5.03" ry="6.7" transform="translate(-313.6 90.94) rotate(-30.94)"/>
  <ellipse class="cls-3" cx="9.4" cy="654.9" rx="4.31" ry="5.74" transform="translate(-335.34 98) rotate(-30.94)"/>
  <ellipse class="cls-3" cx="56.28" cy="662.56" rx="4.31" ry="5.74" transform="translate(-332.61 123.19) rotate(-30.94)"/>
  <ellipse class="cls-3" cx="21.26" cy="681.49" rx="4.31" ry="5.74" transform="translate(-347.32 107.88) rotate(-30.94)"/>
  <ellipse class="cls-3" cx="42.25" cy="638.61" rx="4.31" ry="5.74" transform="translate(-322.29 112.57) rotate(-30.94)"/>
  <g>
    <path class="cls-34" d="M133.74,803.79c-11.58-26.15-14.41-64.26-7.52-102.73,6.88-38.47,22.75-73.24,42.68-93.75,11.58,26.15,14.41,64.26,7.52,102.73-6.88,38.47-22.75,73.24-42.68,93.75Z"/>
    <path d="M168.25,610.91c10.43,25.67,12.77,62.03,6.2,98.78-6.57,36.75-21.38,70.03-40.07,90.5-10.43-25.67-12.77-62.03-6.2-98.78,6.57-36.75,21.38-70.03,40.07-90.5m1.26-7.04c-20.46,19.8-37.77,54.95-45.26,96.84-7.49,41.89-3.44,80.86,8.88,106.52,20.46-19.8,37.77-54.95,45.26-96.84s3.44-80.86-8.88-106.52h0Z"/>
  </g>
  <g>
    <path class="cls-35" d="M118.54,800.49c-24.13-25.44-43.74-68.77-52.7-116.73-8.97-47.95-6.34-95.44,6.97-127.88,24.13,25.44,43.74,68.78,52.7,116.73,8.97,47.95,6.34,95.44-6.97,127.88Z"/>
    <path d="M73.5,559.58c22.89,25.44,41.42,67.24,50.05,113.4,8.63,46.16,6.46,91.83-5.7,123.82-22.89-25.44-41.42-67.24-50.05-113.4-8.63-46.16-6.46-91.83,5.7-123.82m-1.35-7.24c-13.99,31.74-17.97,79.95-8.27,131.8,9.69,51.85,30.82,95.37,55.33,119.91,13.99-31.74,17.97-79.95,8.27-131.8-9.69-51.85-30.82-95.37-55.33-119.91h0Z"/>
  </g>
  <g>
    <path class="cls-35" d="M149.01,797.05c-1.39-35.09,10.45-83.25,32.04-129.87,21.59-46.62,50.65-86.79,78.31-108.44,1.39,35.09-10.45,83.25-32.04,129.87-21.59,46.62-50.65,86.79-78.31,108.44Z"/>
    <path d="M257.46,562.84c.37,34.4-11.31,80.34-31.95,124.93s-48.13,83.21-74.6,105.18c-.37-34.4,11.31-80.34,31.95-124.93,20.65-44.59,48.13-83.21,74.6-105.18m3.69-7.97c-27.84,20.51-58.45,60.79-81.92,111.47-23.47,50.68-34.39,100.08-32.01,134.58,27.84-20.51,58.45-60.79,81.92-111.47,23.47-50.68,34.39-100.08,32.01-134.58h0Z"/>
  </g>
  <g>
    <path class="cls-34" d="M97.64,791.86c-18.65-3.32-38.61-15.97-53.81-34.23s-24.05-40.17-23.95-59.11c18.65,3.32,38.61,15.97,53.81,34.23s24.05,40.17,23.95,59.11Z"/>
    <path d="M21.92,700.96c17.5,3.85,35.98,15.94,50.24,33.06,14.26,17.12,22.82,37.48,23.45,55.38-17.5-3.85-35.98-15.94-50.24-33.06-14.26-17.12-22.82-37.48-23.45-55.38m-3.98-4.78c-.84,19.26,7.54,42.53,24.36,62.72s38.2,32.63,57.29,35.28c.84-19.26-7.54-42.53-24.36-62.72-16.82-20.19-38.2-32.63-57.29-35.28h0Z"/>
  </g>
  <g>
    <path class="cls-34" d="M157.53,801.11c4.28-18.38,17.3-40.32,35.35-59.38,18.05-19.06,39.25-33.24,57.38-38.51-4.28,18.38-17.3,40.32-35.35,59.38s-39.25,33.25-57.38,38.51Z"/>
    <path d="M247.41,706.22c-4.94,17.3-17.26,37.37-33.96,55-16.7,17.63-36.07,31.02-53.08,36.89,4.94-17.3,17.26-37.37,33.96-55,16.7-17.63,36.07-31.02,53.08-36.89m5.46-5.76c-18.5,4.41-41.27,18.6-61.45,39.9s-33.11,44.81-36.52,63.51c18.5-4.41,41.27-18.6,61.45-39.9,20.18-21.3,33.11-44.81,36.52-63.51h0Z"/>
  </g>
  <g>
    <path class="cls-30" d="M87.27,920.85c-4.18,0-7.71-3.13-8.2-7.28l-9-75.72h122.5l-8.67,73c-.68,5.7-5.52,10-11.25,10H87.27Z"/>
    <path d="M190.32,839.85l-8.41,70.77c-.56,4.69-4.54,8.23-9.27,8.23H87.27c-3.17,0-5.84-2.37-6.21-5.52l-8.73-73.48h117.99m4.5-4H67.82l9.26,77.95c.61,5.16,4.99,9.05,10.18,9.05h85.37c6.75,0,12.44-5.05,13.24-11.76l8.94-75.24h0Z"/>
  </g>
  <g>
    <path class="cls-30" d="M68.61,787.85h126.42c6.51,0,11.79,5.28,11.79,11.79v22.43c0,6.51-5.28,11.79-11.79,11.79H68.61c-6.51,0-11.79-5.28-11.79-11.79v-22.42c0-6.51,5.28-11.79,11.79-11.79Z"/>
    <path d="M195.03,789.85c5.4,0,9.79,4.39,9.79,9.79v22.43c0,5.4-4.39,9.79-9.79,9.79H68.61c-5.4,0-9.79-4.39-9.79-9.79v-22.43c0-5.4,4.39-9.79,9.79-9.79h126.43m0-4H68.61c-7.61,0-13.79,6.17-13.79,13.79v22.43c0,7.61,6.17,13.79,13.79,13.79h126.43c7.61,0,13.79-6.17,13.79-13.79v-22.43c0-7.61-6.17-13.79-13.79-13.79h0Z"/>
  </g>
  <g>
    <path class="cls-30" d="M87.27,920.85c-4.18,0-7.71-3.13-8.2-7.28l-9-75.72h122.5l-8.67,73c-.68,5.7-5.52,10-11.25,10H87.27Z"/>
    <path d="M190.32,839.85l-8.41,70.77c-.56,4.69-4.54,8.23-9.27,8.23H87.27c-3.17,0-5.84-2.37-6.21-5.52l-8.73-73.48h117.99m4.5-4H67.82l9.26,77.95c.61,5.16,4.99,9.05,10.18,9.05h85.37c6.75,0,12.44-5.05,13.24-11.76l8.94-75.24h0Z"/>
  </g>
  <g class="cls-36">
    <path d="M182.63,835.51l-7.75,65.24c-.8,6.71-6.48,11.76-13.24,11.76H77.97l.11,.95c.61,5.16,4.99,9.05,10.18,9.05h85.37c6.75,0,12.44-5.05,13.24-11.76l8.94-75.24h-13.19Z"/>
  </g>
  <g class="cls-36">
    <path d="M197.63,786.1c.24,1.03,.39,2.09,.39,3.19v22.43c0,7.61-6.17,13.79-13.79,13.79H57.8c-.89,0-1.76-.09-2.6-.25,1.44,6.07,6.89,10.59,13.4,10.59h126.43c7.61,0,13.79-6.17,13.79-13.79v-22.43c0-6.73-4.82-12.32-11.19-13.53Z"/>
  </g>
  <g class="cls-32">
    <path class="cls-30" d="M87.27,920.85c-4.18,0-7.71-3.13-8.2-7.28l-9-75.72h122.5l-8.67,73c-.68,5.7-5.52,10-11.25,10H87.27Z"/>
    <path d="M190.32,839.85l-8.41,70.77c-.56,4.69-4.54,8.23-9.27,8.23H87.27c-3.17,0-5.84-2.37-6.21-5.52l-8.73-73.48h117.99m4.5-4H67.82l9.26,77.95c.61,5.16,4.99,9.05,10.18,9.05h85.37c6.75,0,12.44-5.05,13.24-11.76l8.94-75.24h0Z"/>
  </g>
  <g class="cls-31">
    <line class="cls-29" x1="75.02" y1="796.51" x2="112.02" y2="796.51"/>
  </g>
  <line class="cls-21" x1="14.52" y1="922.01" x2="246.52" y2="924.01"/>
</svg>