<?xml version="1.0" encoding="UTF-8"?>
<svg id="_Шар_1" data-name="Шар 1" xmlns="http://www.w3.org/2000/svg" viewBox="0 0 474.5 258.6">
  <defs>
    <style>
      .cls-1 {
        fill: #ffff1a;
      }

      .cls-1, .cls-2 {
        stroke-linejoin: round;
      }

      .cls-1, .cls-2, .cls-3 {
        stroke: #000;
        stroke-linecap: round;
        stroke-width: 3px;
      }

      .cls-2 {
        fill: none;
      }

      .cls-3 {
        fill: #72c4e8;
        fill-rule: evenodd;
        stroke-miterlimit: 10;
      }
    </style>
  </defs>
  <path class="cls-3" d="M197.54,165.59c0,9.77-7.92,17.68-17.68,17.68-2.3,0-4.5-.44-6.52-1.24H38.72c-.63,0-1.24-.01-1.86-.04-19.69-.82-35.36-14.65-35.36-31.6s16.66-31.64,37.22-31.64c6.09,0,11.84,1.25,16.92,3.45,1.85-20.03,18.7-35.71,39.22-35.71,18.82,0,34.56,13.2,38.46,30.85,4.36-2.27,9.32-3.55,14.58-3.55,17.48,0,31.64,14.16,31.64,31.64,0,.84-.03,1.68-.1,2.49,.14-.01,.27-.01,.41-.01,9.77,0,17.68,7.92,17.68,17.68Z"/>
  <circle class="cls-1" cx="229.81" cy="129.3" r="76.93"/>
  <line class="cls-2" x1="229.81" y1="257.1" x2="229.81" y2="219.26"/>
  <line class="cls-2" x1="160.69" y1="238.83" x2="182.29" y2="207.75"/>
  <line class="cls-2" x1="117.26" y1="191.81" x2="150.03" y2="172.88"/>
  <line class="cls-2" x1="229.81" y1="39.34" x2="229.81" y2="1.5"/>
  <line class="cls-2" x1="279.18" y1="50.85" x2="300.78" y2="19.77"/>
  <line class="cls-2" x1="311.28" y1="86.69" x2="345.62" y2="70.79"/>
  <line class="cls-2" x1="102" y1="129.3" x2="139.85" y2="129.3"/>
  <line class="cls-2" x1="104.55" y1="70.29" x2="139.79" y2="84.09"/>
  <line class="cls-2" x1="156.06" y1="17.59" x2="177.61" y2="48.69"/>
  <line class="cls-2" x1="319.76" y1="129.3" x2="357.61" y2="129.3"/>
  <line class="cls-2" x1="309.28" y1="172.03" x2="344.52" y2="185.83"/>
  <line class="cls-2" x1="277.77" y1="209.95" x2="295.38" y2="243.45"/>
  <path class="cls-3" d="M473,131.78c0,14.87-13.47,27.34-31.64,30.73-3.18,.6-6.5,.91-9.93,.91h-128.42c-.83,0-1.66-.01-2.48-.05-21.12-.78-37.84-11.43-37.84-24.46s18.05-24.51,40.33-24.51c6.01,0,11.71,.8,16.83,2.23,3.46-18.23,19.47-32.01,38.7-32.01s33.89,12.64,38.2,29.72c7.44-8.56,20.2-14.21,34.7-14.21,22.95,0,41.57,14.16,41.57,31.64Z"/>
</svg>