<?xml version="1.0" encoding="UTF-8"?>
<svg id="vagina" data-name="vagina" xmlns="http://www.w3.org/2000/svg" viewBox="0 0 266.07 535.9">
  <defs>
    <style>
      .vagina-1 {
        fill: #ff6b58;
      }

      .vagina-2 {
        opacity: .5;
        stroke: #efabb8;
        stroke-miterlimit: 10;
      }

      .vagina-2, .vagina-3 {
        fill: none;
      }

      .vagina-4 {
        fill: #f5d8d4;
      }

      .vagina-5 {
        fill: #feb19f;
      }

      .vagina-6 {
        fill: #ff7560;
      }

      .vagina-7 {
        fill: #ff937f;
      }

      .vagina-3 {
        stroke: #f48989;
        stroke-linecap: round;
        stroke-linejoin: round;
        stroke-width: .75px;
      }

      .vagina-8 {
        fill: #f69688;
      }
    </style>
  </defs>
  <path class="vagina-4" d="M96.38,14.19C99.1,10.5,106.21,.91,116.89,.06c10.15-.81,18.09,6.7,25.53,13.96,13.52,13.17,12.14,19.4,25.87,38.47,14.67,20.36,20.45,19.11,27.57,34.72,5.49,12.04,8.61,18.88,9.87,28.6,.38,2.93,.61,6.25,2.38,10.55,3.41,8.26,9.41,12.6,12.6,15.32,8.16,6.98,11.53,15.09,17.7,29.96,7.33,17.67,9.35,35.6,10.55,46.3,.65,5.81,.81,9.51,2.38,15.66,2.75,10.78,6.16,14.69,9.53,24.51,2.86,8.32,3.59,14.8,4.43,22.13,2.97,26.1-3.49,47.9-6.13,56.51-3.21,10.48-11.42,37.27-23.83,45.96-1.23,.86-5.08,3.35-7.83,8.17-2.82,4.95-2.45,8.79-3.4,13.96-.87,4.73-3.64,9.73-9.19,19.74-3.16,5.71-7.3,13.12-13.96,22.47-3.71,5.21-9.67,12.28-21.45,26.21-12.82,15.17-13.33,15.49-15.66,19.06-4.44,6.81-8.95,13.72-12.94,23.83-2.94,7.47-3.37,11.02-7.49,14.64-6.1,5.35-13.79,5.14-14.64,5.11-2.21-.09-7.2-.66-11.57-4.09-3.29-2.58-5.49-6.71-9.87-14.98-1.48-2.78-1.82-3.66-3.06-5.45-3.08-4.41-6.24-6.53-8.17-8.17-1.11-.94-3.1-2.83-8.85-15.32-7.62-16.55-7.2-19.89-12.94-28.6-1.85-2.8-4.07-6.14-7.83-9.87-7.69-7.65-10.82-6.05-18.04-12.94-5.47-5.22-4.64-7.05-12.94-15.66-4.45-4.61-5.01-4.43-7.49-7.15-7.31-8.03-9.43-17.4-11.23-25.87-3.12-14.63-2.12-27.99-2.04-28.94,.61-7.47,1.88-11.69,0-18.38-1.56-5.57-3.7-7.12-6.47-12.94-1.56-3.28-3.06-7.36-5.11-21.79-2.39-16.82-3.58-25.23-3.06-34.38,.4-6.96,1.09-17.25,5.79-29.28,1.5-3.85,6.13-11.92,15.32-27.91,7.72-13.43,8.27-14.13,9.53-17.36,2.07-5.32,3.35-10.59,5.11-27.91,2.38-23.42,.93-22.53,2.72-30.98,.66-3.09,3.52-15.82,11.91-29.96,8.88-14.97,13.66-14.16,22.47-29.28,5.6-9.62,8.3-17.89,11.23-26.89,7.06-21.65,4.69-27.52,12.17-37.62Z"/>
  <path class="vagina-2" d="M56.84,347.39c-15.62-13.2-18.21-23.14-20.43-37.97"/>
  <path class="vagina-2" d="M124.34,507.56c-8.66-18.53-6.85-28.64-2.65-43.03"/>
  <path class="vagina-2" d="M222.59,211.03c7.23,19.13,4.66,29.08-.62,43.11"/>
  <path class="vagina-2" d="M210.18,125.78c-11.24-2.65-14.84-6.71-19.33-13.13"/>
  <path class="vagina-5" d="M101.05,71.81c-3.12,1.65-.52,7.01-3.32,17.36-2.27,8.42-6.64,14.7-10.98,20.94-5.07,7.3-8.2,9.67-10.47,16.6-1.32,4.04-1.55,7.16-1.79,9.96-.75,8.78-1.8,21.17-4.09,31.15-3.58,15.6-9.2,21.05-9.7,31.66-.06,1.35-.1,4.05-1.28,7.4-1.52,4.34-3.59,5.91-6.38,10.47-.3,.49-2.98,4.91-4.6,9.96-2.05,6.41-1.71,11.77-1.28,17.62,.67,9.12,2.12,8.21,3.06,18.13,.72,7.55,.44,14.09,.26,18.64-.2,4.87-.3,7.3-.77,10.21-1.28,8.05-3.14,9.26-4.34,17.11-.43,2.84,.01,1.35-.77,11.49-.66,8.58-1.03,10.35-.77,14.04,.34,4.7,1.4,8.14,2.3,10.98,1.06,3.36,3.31,9.56,12,22.98,6.68,10.3,7.89,10.56,12.26,18.38,3.33,5.96,5.42,9.72,6.89,15.32,2,7.61,.65,10.33,1.79,19.4,.62,4.99,1.46,11.71,4.85,18.89,4.87,10.32,13.22,17.84,20.43,26.81,1.44,1.79,2.51,3.24,3.06,4,1.24,1.71,2.1,2.99,2.55,3.66,5.21,7.75,5.6,7.32,6.89,9.96,2.64,5.36,1.63,8.28,3.57,8.94,2.36,.8,5.64-2.89,7.15-4.6,3.13-3.53,3.01-5.49,6.89-11.49,2.39-3.69,2.39-2.87,3.83-5.36,2.55-4.42,2.63-7.14,4.6-13.53,0,0,1.51-4.92,3.57-9.7,3.3-7.63,7.3-12.88,9.19-15.32,5.58-7.2,8.09-7.61,17.62-16.6,4.42-4.17,11.14-10.56,17.87-19.66,4.61-6.23,9.32-12.61,12.26-21.45,2.98-8.99,1.88-13.77,2.3-25.53,.31-8.64,1.09-30.34,10.21-51.57,6.15-14.32,9.41-12.85,12.77-24.77,1.3-4.61,6.23-22.11-1.28-39.06-1.78-4.03-1.32-1.36-15.06-21.19-5.45-7.86-6.34-9.45-14.04-20.68-11.72-17.07-11.06-15.42-12-17.36-6.18-12.8-6.58-26.49-6.89-37.28-.04-1.21-.16-6.43-.64-13.66-.2-2.93-.29-4.39-.38-5.11-.93-7.38-7.09-10.98-17.11-20.81-9.2-9.03-13.81-13.54-16.09-20.17-2.08-6.03-1.5-10.25-3.83-10.98-4.26-1.34-7.87,12.25-17.11,13.79-10.16,1.69-18.05-12.7-23.23-9.96Z"/>
  <path class="vagina-8" d="M100.9,72.63c-2.76,3.78,.71,6.25-2.04,15.32-1.23,4.07-3.09,7.02-6.81,12.94-5.17,8.22-6.26,8.1-9.53,13.62-5.37,9.05-7.13,17.28-7.49,19.06-1.83,9.05,.4,9.85-1.36,19.4-1.78,9.68-4,8.44-6.13,18.72-2.11,10.19-.3,13.13-3.4,22.47-2.08,6.24-4.2,8.87-3.4,9.53,1.29,1.08,7.96-4.98,26.55-22.47,18.69-17.58,28.08-26.43,29.96-29.62,3.13-5.3,6.45-12.52,14.64-19.06,7.7-6.15,12.1-5.64,13.28-5.45,4.16,.69,6.72,3.83,11.23,9.53,5.72,7.22,5.1,9.23,9.87,15.32,5.52,7.04,13.38,13.32,15.32,11.91,.94-.68-.03-2.8-1.02-7.83-.83-4.21-1.01-8.71-1.36-17.7-.57-14.39,.81-13.37-.34-18.04-1.92-7.79-6.37-13.1-8.85-16-6.1-7.12-7.83-4.83-14.3-11.91-4.82-5.29-10.51-11.52-12.47-20.72-.72-3.36-.74-6.24-2.94-7.53-2.8-1.65-6.47,.83-10.72,2.68-14.95,6.51-24.15-.37-28.68,5.83Z"/>
  <path class="vagina-7" d="M132.31,172.18c-1,.26,1.68,7.11-1.7,15.32-1.99,4.84-4.02,5.12-8.17,11.57-3.17,4.93-4.64,8.88-7.15,15.66-3.18,8.57-2.18,9.8-5.45,19.06-1.73,4.91-3.33,8.44-5.53,13.28-2.24,4.92-4.52,9.92-8.17,16.09-3.93,6.65-4.18,5.76-5.62,8.94-2.56,5.65-2.31,9.65-2.81,20.17-.51,10.76-.81,7.26-1.53,20.94-.56,10.5-.27,10.46-.77,22.98-.82,20.6-1.69,23.31,.26,29.87,1.5,5.04,3.65,8.91,6.64,14.3,2.11,3.81,6.78,11.67,10.72,18.13,.99,1.62,2.17,3.55,3.32,6.38,1.34,3.31,1.45,4.96,2.64,8.85,.28,.91,.77,2.47,3.23,8.51,3.79,9.3,4.24,9.61,5.62,13.28,3.89,10.35,3.54,16.57,4.85,16.6,1.5,.03,1.63-8.08,4.6-17.62,3.07-9.88,6.12-11.46,16.85-29.36,6.93-11.56,10.56-17.62,14.3-26.81,2.23-5.5,4.21-12.35,8.17-26.04,3.34-11.54,5.03-17.44,6.13-24,.96-5.73,2.37-14.1,1.79-23.49-.76-12.28-4.56-20.26-8.17-29.36-4.27-10.76-.58-3.65-13.79-46.98-14.63-48-19.12-56.56-20.26-56.26Z"/>
  <path class="vagina-1" d="M129.47,224.54c5.22,.04,8.29,7.34,8.43,7.66,.48,1.17,1.83,4.99,.26,9.19-.43,1.15-1.34,3.56-3.83,5.11-2.74,1.69-6.27,1.65-8.94,.26-4.76-2.48-5.08-8.37-5.11-9.45-.16-5.85,4.07-12.81,9.19-12.77Z"/>
  <path class="vagina-1" d="M126,294.62c8.18-.55,14.57,6.95,15.83,8.43,3.09,3.62,4.27,7.69,6.64,15.83,1.32,4.54,3.26,11.32,4.09,20.68,.6,6.77,1.15,13.03-.51,21.19-.38,1.87-1.85,8.59-6.13,16.6-4.3,8.05-9.14,17.1-18.38,19.4-1.64,.41-5.92,1.47-9.96-.51-3.92-1.92-6.71-6.26-9.19-20.17-1.83-10.22-2.08-17.73-2.3-36.77-.21-18.1-.09-20.86,1.53-25.28,.91-2.48,6.86-18.62,18.38-19.4Z"/>
  <path class="vagina-2" d="M102.08,57.54c-2.7-20.27,2.05-29.38,10.37-41.85"/>
  <path class="vagina-6" d="M120.39,46.8c1.16-.05,15.84-.43,21.96,10.21,2.94,5.11,2.57,10.44,2.3,12.51-.86,6.62-4.67,10.73-6.13,12.26-2,2.1-6.96,6.5-14.55,7.15-1.26,.11-7.16,.5-13.28-3.06-5.03-2.93-7.49-6.95-8.68-8.94-1.71-2.87-5.68-9.52-3.83-16.34,2.49-9.19,14.11-13.45,22.21-13.79Z"/>
  <line class="vagina-3" x1="133.04" y1="158.02" x2="133.04" y2="164.92"/>
</svg>